<svg xmlns="http://www.w3.org/2000/svg" viewBox="0 0 40.11 40.11"><defs><style>.cls-1{fill:#106bfe;}.cls-2{fill:#1008cd;}.cls-3{fill:#1109da;}.cls-4{fill:#1109db;}.cls-5{fill:#5394fd;}.cls-6{fill:#4c46da;}.cls-7{fill:#524cdb;}.cls-8{fill:#19cdfe;}.cls-9{fill:#227afe;}</style></defs><title>Asset 4</title><g id="Layer_2" data-name="Layer 2"><g id="Layer_1-2" data-name="Layer 1"><path class="cls-1" d="M20.32,33.38c-.35,0-.43.44-.78.51a.9.9,0,0,1,.62-1,2.78,2.78,0,0,1,3.71,1.74,2,2,0,0,1-.77,2.08,7,7,0,0,1-3.68,1.6A12,12,0,0,1,6.05,28.22a13.56,13.56,0,0,1,1.63-8.28A23.8,23.8,0,0,1,21.27,8.61a25.89,25.89,0,0,1,10-1.76A8.32,8.32,0,0,1,36,8.24a3.34,3.34,0,0,1,.82.87A20.32,20.32,0,0,1,40,17.71c0,.14-.05.33.15.4v1.07c-.17.08.08.45-.27.4-1.87-1.74-4.21-2.25-6.62-2.52a26.19,26.19,0,0,0-13.19,2,14.37,14.37,0,0,0-8.3,8.76,8.49,8.49,0,0,0-.38,3.5,4.58,4.58,0,0,0,.31,1.3c1.16,3,5.47,5.09,8.52,4.13a2.71,2.71,0,0,0,1.6-1.13,1.4,1.4,0,0,0-.54-2.23A1.78,1.78,0,0,0,20.32,33.38Z"/><path class="cls-2" d="M22.06.11A19.92,19.92,0,0,1,34.15,5.83a1.23,1.23,0,0,1-.77,0,26.67,26.67,0,0,0-20.33,5A20.18,20.18,0,0,0,5,23.31,12.79,12.79,0,0,0,16.63,38.8,10.36,10.36,0,0,0,22.17,38a3.31,3.31,0,0,0,2.21-2.56,2.39,2.39,0,0,0-1.83-2.78,4.06,4.06,0,0,0-2.24-.08c-1.15.33-1.47,1.05-.95,2.1a1.24,1.24,0,0,1-.72-1.91,3.08,3.08,0,0,1,1.93-1.35,7.23,7.23,0,0,1,5.26.58c2.6,1.32,2.93,4.16.73,6.1a8.32,8.32,0,0,1-4.2,1.76C13.72,41.41,5,36,1.59,27.93A20.12,20.12,0,0,1,17,.24c.33-.05.66-.08,1-.12a5.15,5.15,0,0,0,1.07,0A.53.53,0,0,0,19.25,0h1.6C21.23.25,21.66.1,22.06.11Z"/><path class="cls-3" d="M22.06.11c-.42.17-.85.39-1.21-.11H21a.17.17,0,0,0,.27,0h.8A1.06,1.06,0,0,1,22.06.11Z"/><path class="cls-4" d="M19.24.12A1.09,1.09,0,0,1,18,.12S18,0,18,0h.8C18.95.13,19.13,0,19.24.12Z"/><path class="cls-5" d="M39.84,19.59l.27-.4v.67Z"/><path class="cls-6" d="M19.24.12c-.14,0-.3.06-.39-.12h.4S19.24.08,19.24.12Z"/><path class="cls-7" d="M21.25,0c-.09.16-.18.14-.27,0Z"/><path class="cls-8" d="M35.71,32.62c0-.58.09-1,.07-1.42a3.81,3.81,0,0,0-2.14-3.32,14.77,14.77,0,0,0-5.11-1.67,14,14,0,0,0-9.09,1.32,5.9,5.9,0,0,0-3.17,3.79c-.57,2.32.64,3.88,3,4.21a2,2,0,0,0,1.33-.37c.58-.38.58-.84,0-1.52a1,1,0,0,1,1,.7,1,1,0,0,1-.22,1.11,3.38,3.38,0,0,1-1.56.88A6.25,6.25,0,0,1,12.66,33a4.91,4.91,0,0,1-.29-3.14,11.17,11.17,0,0,1,5.7-7.64,23.42,23.42,0,0,1,12.69-3.3,15.85,15.85,0,0,1,7.56,2.17,2.54,2.54,0,0,1,1.38,3A19.93,19.93,0,0,1,35.71,32.62Z"/><path class="cls-9" d="M20.32,33.38a.82.82,0,0,1,.93,0Z"/></g></g></svg>