<svg xmlns="http://www.w3.org/2000/svg" viewBox="0 0 350.57 187.83"><defs><style>.cls-1{fill:#106bfe;}.cls-2{fill:#fbc343;}.cls-3{fill:#12224a;}.cls-4{fill:#f6f5f5;}.cls-5{fill:#86a7ff;}.cls-6{fill:#dadada;}.cls-7{fill:#102048;}.cls-8{fill:#e49b31;}.cls-9{fill:#f9b384;}.cls-10{fill:#e28b6d;}.cls-11{fill:#1f3c88;}.cls-12{fill:#87a8ff;}.cls-13{fill:#dbdbdb;}.cls-14{fill:#f5f5f5;}.cls-15{fill:#f5f4f4;}.cls-16{fill:#fff;}.cls-17{fill:#d3dfff;}.cls-18{fill:#86a8ff;}.cls-19{fill:#8facff;}.cls-20{fill:#11224b;}.cls-21{fill:#12224d;}.cls-22{fill:#12224c;}.cls-23{fill:#142450;}.cls-24{fill:#132451;}.cls-25{fill:#c2d3f2;}.cls-26{fill:#8e9dc7;}.cls-27{fill:#88a8ff;}.cls-28{fill:#e49c32;}.cls-29{fill:#1c294f;}.cls-30{fill:#e59e33;}.cls-31{fill:#8aaaff;}.cls-32{fill:#102049;}.cls-33{fill:#11224c;}.cls-34{fill:#8baafe;}.cls-35{fill:#d5dffc;}.cls-36{fill:#152655;}.cls-37{fill:#89a7fd;}.cls-38{fill:#f8fbfb;}.cls-39{fill:#f8f9fa;}.cls-40{fill:#87a7ff;}.cls-41{fill:#16254c;}.cls-42{fill:#664153;}.cls-43{fill:#fefefe;}.cls-44{fill:#3a6bea;}.cls-45{fill:#d3e0ff;}.cls-46{fill:#afbee7;}.cls-47{fill:#7495ea;}.cls-48{fill:#7495eb;}.cls-49{fill:#f5f3f1;}.cls-50{fill:#dddad9;}.cls-51{fill:#8babff;}.cls-52{fill:#8dacff;}.cls-53{fill:#8eadff;}.cls-54{fill:#90aefe;}.cls-55{fill:#99b0f8;}.cls-56{fill:#f9fafb;}.cls-57{fill:#3e6dea;}.cls-58{fill:#87a9ff;}</style></defs><title>Illlus-1</title><g id="Layer_2" data-name="Layer 2"><g id="Layer_1-2" data-name="Layer 1"><path class="cls-1" d="M300.92,98.58a29.49,29.49,0,0,1,.72,4.57c.49,4,.92,8,1.11,12,0,.62.14,1.24.22,1.86a8.22,8.22,0,0,1,.59,3.68c.19,5.42.52,10.85.56,16.27a7.73,7.73,0,0,1,0,1c0,7.33,0,14.67,0,22,.08,1,0,2,0,3,0,.45,0,.9,0,1.35a28.34,28.34,0,0,1-.33,4.84,4.06,4.06,0,0,1-2.47,3.36,4.91,4.91,0,0,1-2.15.65,28.66,28.66,0,0,1-7.62-.17c-2.91-1-4.62-4.33-3.61-7,1.42,0,2.82.38,4.23.42,3.32.09,6.67.31,10.2-.84a33.66,33.66,0,0,1-13.75.34,1.63,1.63,0,0,1-.82-.3,5.92,5.92,0,0,1-.73-3q-1.77-14-3.28-28c-.48-4.46-1-8.92-1.29-13.39,0-.28,0-.56,0-.84a4.9,4.9,0,0,0-.12-.79c.06-1.42.25-2.83.44-4.24a6.61,6.61,0,0,1,2.51-4.35c1.45-1.18,2.94-2.33,4.36-3.56-1.66,1.25-3.31,2.51-4.88,3.87a6.32,6.32,0,0,0-2.08,4.18,92.35,92.35,0,0,0-.77,13.9,13.69,13.69,0,0,0,.54,4.21,227.27,227.27,0,0,0,1.39,25.53c.19,1.94.7,3.87.41,5.85-1.08,1.21-2.62.95-4,1.17a34.53,34.53,0,0,1-11.23-.3,34.62,34.62,0,0,0,14.94-.33c.31,0,.44.18.54.43a5.88,5.88,0,0,1-2.62,7.6,62.92,62.92,0,0,1-9.25.18c-2.3-.3-3.56-1.8-4.43-3.79a77.23,77.23,0,0,1-5.45-19.91c-.05-.37-.13-.74-.19-1.11a8.58,8.58,0,0,0-.26-1.93,125.5,125.5,0,0,1-.82-19.29,8.13,8.13,0,0,1,0-.91c.33-3,.33-5.94.91-8.87.87-4.4,2.07-8.73,2.8-13.16.52-3.14,1.06-6.28,1.55-9.43a2.7,2.7,0,0,1,.59-1.62c2.94,0,5.83-.65,8.77-.7,2.89.41,5.82.5,8.71.91,4.94.7,9.84,1.53,14.46,3.51A2.74,2.74,0,0,1,300.92,98.58Z"/><path class="cls-2" d="M276.24,93.33c-1.95.19-3.9.35-5.84.57a8.1,8.1,0,0,1-3-.1,3.5,3.5,0,0,1-2.62-3.39,36.21,36.21,0,0,1,0-5.27c.26-2.63.17-5.27.22-7.9a2.79,2.79,0,0,1,.26-1.46c.37-.34.5-.05.59.25a10.55,10.55,0,0,1,.12,1.9,11.75,11.75,0,0,0,1.62-4.65,4.12,4.12,0,0,1,1.31-2.77c-1.32,1.28-2.6,2.6-3.93,3.86-1.55,1.46-3.54,2.21-5.28,3.35-3.68,1.48-7.48,1.33-11.28.67a24.17,24.17,0,0,1-5.54-1.65c-.66-.28-1.34-.52-2-.85-1.73-.89-3.47-1.76-5.1-2.81-.42-.27-.88-.49-1-1a20.51,20.51,0,0,1,1.57-5.28,1.11,1.11,0,0,1,.37-.19c1.25-.25,2.48.32,3.74.07,1.61.16,3.24,0,4.85.22,2.2.22,4.42,0,6.62.29.32,0,.64,0,1,0a.56.56,0,0,1,.48.22c-.29,1-1.2,1.78-1.31,2.91a4,4,0,0,0-.11,1.48c-.25-1.76,1.1-2.94,1.54-4.45a127.45,127.45,0,0,1,11.56-8.61,35.57,35.57,0,0,1,7.28-4.16c.33-.13.66-.26,1-.38l.68-.24a9.24,9.24,0,0,1,1.09-.33,21.66,21.66,0,0,1,4-.8,1.61,1.61,0,0,1,1.2.13,38.38,38.38,0,0,1,5.51.23,19.92,19.92,0,0,1,5.28,1.52c2.18,1.44,3,3.75,3.88,6a75.18,75.18,0,0,1,3.31,13,1.4,1.4,0,0,1-.12,1.21c.67,3.93,1.19,7.89,1.64,11.85a5.07,5.07,0,0,1-.84,2.95c-.27,1.24-1.33,1.4-2.3,1.6-2.1.42-4.23.54-6.35.78-3.53.41-7.07.8-10.61,1.13A21.89,21.89,0,0,1,276.24,93.33Z"/><path class="cls-1" d="M49.09,95.51a17.62,17.62,0,0,0-.16-2.75,77,77,0,0,1,2.22-19.53,33.44,33.44,0,0,1,5.38-11.7A17.3,17.3,0,0,1,68.37,54.4c1.1.55,1.62,1.64,2.33,2.54,1.2,1.52,1.16,1.53,2.31-.07a14.06,14.06,0,0,1,2.06-2.67,1.2,1.2,0,0,1,.87.12A33.89,33.89,0,0,1,83.33,59a19.63,19.63,0,0,1,2.87,3.12,1.33,1.33,0,0,0,2,.36,15.9,15.9,0,0,0,3.54-2.77,5.83,5.83,0,0,0,1-1.14c.88-.94,1.54-2.05,2.4-3a1.32,1.32,0,0,1,.5-.27A13.14,13.14,0,0,1,100.93,57c.39.92-.16,1.71-.39,2.53s-.44,1.35-.67,2a36.67,36.67,0,0,1-1.56,3.35A9.29,9.29,0,0,0,97.79,66c-1.7,3-3.6,5.85-6.59,7.76-.55.35-1.06.85-1.82.68a3.45,3.45,0,0,1-.92-1.32A19.6,19.6,0,0,0,84.3,68.4c.31,2.52.72,4.88,1,7.25a69.83,69.83,0,0,1,.74,8.84c0,1.47.33,2.9.28,4.37-.06,1.72-.2,2-1.85,2.5-.52.17-1,.31-1.56.45-1,.24-1.9.48-2.85.75a55.73,55.73,0,0,1-12.42,1.78,27.77,27.77,0,0,1-9.42-1.29c-1.46-.49-1.47-.45-1.72,1.1-.18,1.12-.25,2.25-.44,3.37,0,.29,0,.57,0,.86a3.25,3.25,0,0,1-.63,2.1c-1.89.35-3.76-.05-5.64-.16-.72-.36-.72-1.1-.92-1.74a12.91,12.91,0,0,1-.07-2A1.89,1.89,0,0,1,49.09,95.51Z"/><path class="cls-3" d="M272.49,173.44c2.25-.14,4.5,0,6.75-.06a6.9,6.9,0,0,0,2.11-.17.59.59,0,0,1,.57.18c.48.21.45.67.47,1.07.22,3.51.5,7,.77,10.51.1,1.34.15,1.43,1.46,1.45.92,0,1.85,0,2.76,0,1.11.07,1.59-.49,2.05-1.43,1.6-3.24,1.67-6.68,1.56-10.18,0-.73-.21-1.52.41-2.14a53.67,53.67,0,0,0,6.38.18,8.36,8.36,0,0,0,3.42-.63,6,6,0,0,1,.6,3.28c-.06,3,.35,5.93.31,8.9,0,1.8.27,2,2.07,2,1.34,0,2.68,0,4,0,.47.05.95,0,1.42,0,5.88-.08,11.76,0,17.64,0a13.63,13.63,0,0,0,1.68,0c1.33.15,2.72-.38,4,.33l12.34,0h1.13c.34,0,.67,0,.68.48s-.25.54-.63.53H7l-1.26,0c-.25,0-.37-.15-.36-.41s0-.53.33-.56.67,0,1,0H27.21c.5,0,1,0,1.51,0,.69-.55,1.5-.27,2.25-.31s1.72,0,2.58,0c6.17,0,12.33,0,18.49,0,.93,0,1.87,0,2.8,0,1.42,0,2.83,0,4.25,0,1.75,0,1.91-.2,1.72-2,0-.21-.08-.41-.12-.61a2.1,2.1,0,0,1,0-.45c-.07-2.89-.29-5.78-.49-8.67a5.31,5.31,0,0,1,.26-3.08,4.33,4.33,0,0,1,2.3-.48,71.72,71.72,0,0,1,8.62,0,2.26,2.26,0,0,1,.36,1.68,24.34,24.34,0,0,1-.16,4.64c-1.07.81-2.44,1.06-3.56,1.78-.37.24-.86.32-1,.92,1.54-.29,2.84-1.21,4.3-1.68.7-.22,1.11.26,1.51.67a72.72,72.72,0,0,1,5.49,5.72A3.72,3.72,0,0,0,82,186.51a17.37,17.37,0,0,1,1.89,0c.22,0,.43,0,.65,0,5.15,0,10.31,0,15.46,0a14.06,14.06,0,0,0,1.47,0q24.2-.09,48.4,0c.41,0,.83,0,1.24,0,1.55-.08,3.1,0,4.65,0h40a14.76,14.76,0,0,1,1.76,0h1a9.56,9.56,0,0,1,1.38,0H249.9c3.06,0,6.12,0,9.18,0,.51,0,1,0,1.54,0a5.37,5.37,0,0,0,4.48-1.38,32.32,32.32,0,0,1,3.3-2.24,12.56,12.56,0,0,0,1.19-.8,19.52,19.52,0,0,1,1.6-1.13,1.12,1.12,0,0,1,1.36-.11c.94.53,1.66,1.44,2.81,1.63a5,5,0,0,0-2.38-2c-.36-.15-.72-.19-.81-.65a48.19,48.19,0,0,1-.08-5.21A1.43,1.43,0,0,1,272.49,173.44Z"/><path class="cls-4" d="M33.51,130.11a.84.84,0,0,0,.59-.39c1.5-1.78,3-3.57,4.63-5.24a63.08,63.08,0,0,1,7.34-6.19c1.09-.82,2.23-1.58,3.35-2.36a3.84,3.84,0,0,1,3.45,1,55.65,55.65,0,0,1,.41,6.77q.24,9.94,1,19.85a8.61,8.61,0,0,1,0,2.26c-.22.74-.59.53-1,.13-.72-.76-1.49-1.47-2.21-2.24A69.3,69.3,0,0,0,34.42,131C34.05,130.8,33.5,130.72,33.51,130.11Z"/><path class="cls-5" d="M71.36,36.86c0-.38,0-.75,0-1.13,0-10.16,0-20.33,0-30.49a5,5,0,0,1,2-4.27,4.17,4.17,0,0,1,2.67-1H271.74A5.1,5.1,0,0,1,275,.84,4.59,4.59,0,0,1,277,4.67q0,15.94,0,31.88a.57.57,0,0,1-.88,0,3.89,3.89,0,0,1-.28-2.09q0-13.67,0-27.34a11.76,11.76,0,0,0-.19-2.51A3.92,3.92,0,0,0,272,1.27a14.66,14.66,0,0,0-1.89-.06H78.4a10.63,10.63,0,0,0-2.75.22A3.46,3.46,0,0,0,72.76,5c0,3.15,0,6.3,0,9.45,0,6.47,0,12.93,0,19.4,0,1.26,0,2.37,1.62,2.52.16,0,.26.2.3.37A3.17,3.17,0,0,1,71.36,36.86Z"/><path class="cls-6" d="M309.52,186.77a3.6,3.6,0,0,1-1.28,0c-.07-.54.37-.71.71-.92,7.73-5,13.17-12,17.57-19.88a77.53,77.53,0,0,0,6.63-16.16,183.15,183.15,0,0,0,5.79-29.88c.49-4,.89-8,1.39-12,.15-1.23,0-1.39-1.18-1a53,53,0,0,0-17,10.31,80,80,0,0,0-6.87,7,81.07,81.07,0,0,0-10.08,15.47,8,8,0,0,0-.89,3.74c0,5,0,10,0,15,0,.56.26,1.29-.54,1.62q0-9.13,0-18.25c0-1.3,0-2.6,0-3.9.84.35.32.92.33,1.13a72.48,72.48,0,0,1,9.39-14.75,7,7,0,0,1,.83-.76,16,16,0,0,0,2.23-2.36,70.56,70.56,0,0,1,9.68-8.55,53.38,53.38,0,0,1,13.07-6.87c.66-.24,1.35-.38,2-.55a1.06,1.06,0,0,1,.21,1c-.21,2-.42,4.06-.67,6.09-.11.91-.18,1.83-.28,2.74-.36,3.31-.85,6.61-1.26,9.92A176.31,176.31,0,0,1,335,147.3c-.41,1.57-1,3.1-1.26,4.72-.43,2.79-1.73,5.26-2.63,7.68a13.15,13.15,0,0,1,1.69-1.27,5.52,5.52,0,0,1,2.21-1.11h.25c.08-.09.18-.15.27-.23,1.42-.49,2.72-1.27,4.16-1.74a33.93,33.93,0,0,1,6.68-1.57,14.43,14.43,0,0,1,2.61-.24c.5,0,.68.25.6.72A63.68,63.68,0,0,1,345.78,168a40.67,40.67,0,0,1-6.87,11.16,24.29,24.29,0,0,1-4.51,4.16,2.06,2.06,0,0,0-.7.71,10.72,10.72,0,0,1-4.76,2.75,5,5,0,0,1-1.53,0c.09-.68.71-.76,1.16-1a29.9,29.9,0,0,0,5.79-3.76c7.52-6.21,11.29-14.52,13.37-23.78.18-.82.32-1.65.49-2.47s-.16-1.24-1.07-1.12a31.27,31.27,0,0,0-7,1.61,22.44,22.44,0,0,0-4.8,2.2,32.06,32.06,0,0,0-4.48,3,5.5,5.5,0,0,0-1.6,2.06,65.37,65.37,0,0,1-12.42,17.74,9.13,9.13,0,0,1-2.08,1.6.31.31,0,0,1-.26.08c.11.2.12-.05.19,0s.06,0,.1,0a129.33,129.33,0,0,0,19-13.14c.76-.65,1.46-1.38,2.27-2,1.76-1.68,3.45-3.44,5.18-5.15a10.19,10.19,0,0,1,.82-.78c.37-.29.81-.63,1.21-.16s-.05.79-.33,1.08a87.41,87.41,0,0,1-6.84,6.67,109.64,109.64,0,0,1-25.53,17C310.24,186.55,309.87,186.63,309.52,186.77Z"/><path class="cls-7" d="M71.36,36.86l3.17-.08a.74.74,0,0,1,.56-.16,3,3,0,0,1,.94.33,4.89,4.89,0,0,1,2.63,3.76c.06.62.16,1.27-.44,1.73-.6.13-.9-.35-1.28-.64-1.46-1.13-2.69-.91-3.64.7-.53.9-.89,1.89-1.45,2.78s-1,1-1.75.23c-.59-.55-1.21-1-2-.38-.62.47-.58,1.44,0,2.26a4,4,0,0,1,.26,4.27c-1.63,0-3.25-.27-4.89-.17-.39,0-.75,0-.8-.54a20.58,20.58,0,0,1,.4-6.71A10.15,10.15,0,0,1,65.24,40c-.08-.4-.45-.33-.68-.47a2.29,2.29,0,0,1-1.34-2.1c0-1.16.52-1.68,1.68-1.7.58,0,1.08,0,1.48-.62a1.82,1.82,0,0,1,2.22-.69,2,2,0,0,1,1.51,1.92c0,.28,0,.57,0,.89A2.24,2.24,0,0,0,71.36,36.86Z"/><path class="cls-6" d="M33.51,130.11c2.45,1.5,4.93,2.94,7.34,4.52a73.51,73.51,0,0,1,12.6,11c.17.18.31.39.46.58a1.8,1.8,0,0,1,.47,2.08c-.38.52-.57.13-.67-.18a8,8,0,0,0-2.13-2.92A71,71,0,0,0,33.82,131.5c-.33-.18-.67-.34-1-.5a118,118,0,0,0-13.73-6.26c-1.28-.49-1.36-.4-1.18,1a184.64,184.64,0,0,0,3.88,22.05c.62,2.4,1.38,4.75,2.17,7.1a55.58,55.58,0,0,0,10.59,18.82,39.82,39.82,0,0,0,15.42,11.15c1.32.53,2.72.86,4.07,1.31.36.12.89.06.94.65a18.45,18.45,0,0,1-2.79,0A29.33,29.33,0,0,1,41,181.45,48,48,0,0,1,26.46,164.2a7.28,7.28,0,0,0-3-3.1c-4.52-2.61-9.51-3.94-14.5-5.23-1.16-.3-.79.51-.65,1a116.85,116.85,0,0,0,4.56,13.85A24.83,24.83,0,0,0,17,177.9c3.79,4.33,8.27,7.45,14.16,8.11.76.35,1.81-.2,2.37.77-1.6.07-3.2.07-4.8,0-1-.44-2-.68-3.05-1.09a23.86,23.86,0,0,1-7.38-4.89A24.36,24.36,0,0,1,13.18,174a48.06,48.06,0,0,1-2.46-5.9c-1.54-4.38-2.89-8.81-4-13.31a.44.44,0,0,1,.12-.46c5.68,1.29,11.37,2.73,16.63,5.49.33.14.74.07,1.07.35a12.2,12.2,0,0,1-.81-2.64c-.92-3-2-5.94-2.79-9s-1.5-6.16-2-9.29c-.39-2.38-.84-4.76-1.19-7.15-.32-2.14-.52-4.3-.84-6.44a17.66,17.66,0,0,1-.26-2.88,6.45,6.45,0,0,1,2.51.77,142.31,142.31,0,0,1,13.29,6C32.78,129.73,33.05,130.1,33.51,130.11Z"/><path class="cls-8" d="M298.18,75A95.43,95.43,0,0,0,295,61.62a19.62,19.62,0,0,0-3.86-6.93,22.27,22.27,0,0,1,6.88,4,24.12,24.12,0,0,1,6.68,8.19,8.86,8.86,0,0,1,1,4,3.67,3.67,0,0,1-2.91,3.87A11.71,11.71,0,0,1,298.18,75Z"/><path class="cls-4" d="M314.31,123.55a5.23,5.23,0,0,1-1.36,1.92,76.58,76.58,0,0,0-6.55,9.8c-.79,1.37-1.49,2.79-2.26,4.25-.38-.56.05-1.18-.38-1.6a5.48,5.48,0,0,1-.09-1.5c-.09-3.64-.09-7.29-.28-10.92-.15-2.84-.27-5.67-.43-8.51a48.21,48.21,0,0,1,9,5A7.87,7.87,0,0,0,314.31,123.55Z"/><path class="cls-9" d="M68.41,51.64a11.92,11.92,0,0,0,.19-2.37,1.69,1.69,0,0,0-.68-1.72,1.83,1.83,0,0,1-.53-2.06,1.36,1.36,0,0,1,1.15-1,1.92,1.92,0,0,1,1.71.59c.24.22.26.62.64.86.46-.2.65-.67.88-1.09s.53-1.14.8-1.7a6.52,6.52,0,0,1,.54-1c1.22-1.68,2.61-2,4.2-.5.27.25.53.52.79.78a1.13,1.13,0,0,1,.58,1,16,16,0,0,1-.27,5.08,3.81,3.81,0,0,1-2.21,2.69,5.07,5.07,0,0,1-.95.26A7.58,7.58,0,0,1,72.43,51a6.15,6.15,0,0,0,2.45,3,.66.66,0,0,1,.17.3,50.32,50.32,0,0,1-3.15,4.6L68.37,54.4A5.66,5.66,0,0,0,68.41,51.64Z"/><path class="cls-7" d="M276.23,36.55H277a10.49,10.49,0,0,1,2.4.68,5.57,5.57,0,0,1,2.86,3.65,8.66,8.66,0,0,1-.81,7A2.82,2.82,0,0,1,280.27,49a2.39,2.39,0,0,1-2.43-2.5,1.75,1.75,0,0,1,.06-.24c.21-.73.54-1.55-.32-2s-1.56,0-2.12.76-1.17.52-1.71,0a3.24,3.24,0,0,1-.82-1.54,3.06,3.06,0,0,0-2.27-2.43c-.54-1.66.53-2.61,1.58-3.57a5.79,5.79,0,0,1,1.62-.78C274.64,36.43,275.43,36,276.23,36.55Z"/><path class="cls-10" d="M270.72,40.86a2.25,2.25,0,0,1,2.37,2,5.1,5.1,0,0,0,.71,1.73c.47.71,1,.68,1.52,0a1.91,1.91,0,0,1,1-.88,1.73,1.73,0,0,1,1.77.33,1.75,1.75,0,0,1,.34,1.77c-.13.49-.66.88-.24,1.5.52.78,1,1.54,2.06,1.69l.06,4-5.4,1c.23-1.14,1.18-1.86,1.66-2.85,0-.1.12-.1.2-.11-.25-.13-.25.2-.41.23a12.87,12.87,0,0,1-2.43,1,2.53,2.53,0,0,1-.56.1,3.26,3.26,0,0,1-1-.1,2.71,2.71,0,0,1-2.13-2.35,1.78,1.78,0,0,0-1-1.49,1,1,0,0,1-.38-1.51,10,10,0,0,0,1.26-4.91A1.13,1.13,0,0,1,270.72,40.86Z"/><path class="cls-11" d="M276.24,93.33c3-.45,6-.69,8.94-1,3.81-.42,7.62-.83,11.43-1.27A3.91,3.91,0,0,0,299,89.75a39.05,39.05,0,0,1,1.71,7.11,5.3,5.3,0,0,1,.23,1.72A46.3,46.3,0,0,0,288,94.77c-3.21-.55-6.45-.78-9.67-1.21C277.63,93.47,276.9,93.7,276.24,93.33Z"/><path class="cls-5" d="M40.69,51.22a12.7,12.7,0,0,1-6.12-2.46,1.62,1.62,0,0,0-1.45-.4,22,22,0,0,1-11.59-1.21A11.67,11.67,0,0,1,17,44.1,5.77,5.77,0,0,1,17.08,36a14.29,14.29,0,0,1,7.71-3.94,19.38,19.38,0,0,1,4.85-.51,20.88,20.88,0,0,1,9.67,2.35,9.71,9.71,0,0,1,3.28,2.88A5.62,5.62,0,0,1,42.14,44a8.68,8.68,0,0,1-2.6,2.16c-.66.31-.68.72-.42,1.29.43,1,.85,1.92,1.29,2.87A2,2,0,0,1,40.69,51.22Z"/><path class="cls-5" d="M305.89,41.76a10.9,10.9,0,0,1,.81-1.8c.27-.66.52-1.33.8-2s.16-.83-.39-1.09a9.07,9.07,0,0,1-2.53-2,5.69,5.69,0,0,1-.27-7.77,12.11,12.11,0,0,1,5.53-3.57,19.06,19.06,0,0,1,6.28-1.07,23.62,23.62,0,0,1,7.34.81,13.72,13.72,0,0,1,5.84,3.31,5.78,5.78,0,0,1,0,8.52,14.29,14.29,0,0,1-7.41,3.76,22.26,22.26,0,0,1-8.61.21,1.27,1.27,0,0,0-1.23.32,11.66,11.66,0,0,1-5.56,2.49A.75.75,0,0,1,305.89,41.76Z"/><path class="cls-12" d="M52.72,116.82a28,28,0,0,0-3.29-.9c-1.79-.7-3.67-1.14-5.5-1.7-3.08-.93-6.17-1.86-9.27-2.74-.64-.18-.67-.48-.51-1Q36,104.4,37.76,98.32c.48-1.6,1-3.2,1.42-4.82.16-.58.4-.69,1-.51,2.52.78,5.05,1.5,7.59,2.23a3.08,3.08,0,0,0,1.34.28l0,1.09a55.92,55.92,0,0,1-5.68-1.54c-.69-.18-1.38-.36-2.05-.61-.91-.33-1.39-.08-1.67.87-1.09,3.79-2.24,7.56-3.33,11.35-.16.56-.34,1.12-.52,1.68-.7,2.22-.7,2.23,1.48,2.86q4.35,1.26,8.69,2.55c3.42,1,6.84,2,10.26,3,1.32.39,1.47.31,1.87-1,1.38-4.53,2.71-9.09,4-13.64.41-1.42.38-1.41-1-1.84s-2.73-.82-4.11-1.2a2.53,2.53,0,0,1-1.42-.75l.05-.79a1.68,1.68,0,0,1,1.44.07c1.95.6,3.9,1.18,5.86,1.75,1,.31,1.14,1,.87,1.9-1.62,5.34-3.13,10.71-4.75,16-.42,1.37-.74,1.53-2.14,1.09S54,117.81,52.72,116.82Z"/><path class="cls-4" d="M335,157.32a44.53,44.53,0,0,0-4.22,3l-.19-.15c.45-1.14.88-2.29,1.37-3.41.68-1.56,1-3.25,1.78-4.77A20,20,0,0,1,335,157.32Z"/><path class="cls-6" d="M348.45,136.64c1.22,0,2,.62,2.12,2.1a2.28,2.28,0,0,1-2.07,2.15,2.36,2.36,0,0,1-2.19-2.17A2,2,0,0,1,348.45,136.64Z"/><path class="cls-6" d="M17.9,100.43A2,2,0,0,1,20,98.34a2.32,2.32,0,0,1,2.15,2.15,2.25,2.25,0,0,1-2.12,2.08C18.87,102.52,17.69,101.42,17.9,100.43Z"/><path class="cls-13" d="M2.41,138.42A2.26,2.26,0,0,1,0,136.12a2.55,2.55,0,0,1,2.36-2.46,2.6,2.6,0,0,1,2.43,2.53A2.33,2.33,0,0,1,2.41,138.42Z"/><path class="cls-13" d="M320.1,101.73a2.4,2.4,0,0,1-2.34,2.39,2.47,2.47,0,0,1-2.23-2.39,2.15,2.15,0,0,1,2.35-2.4A2.08,2.08,0,0,1,320.1,101.73Z"/><path class="cls-14" d="M328.93,186.77l4.76-2.75a22.64,22.64,0,0,0-.74,2.76A34.11,34.11,0,0,1,328.93,186.77Z"/><path class="cls-15" d="M23.7,157.56a14.75,14.75,0,0,1,1.23,3.25l-1.5-1C23.94,159.13,23.58,158.32,23.7,157.56Z"/><path class="cls-4" d="M335.48,157.07l-.27.23Z"/><path class="cls-16" d="M270.72,40.86c-.46,1-.24,2.15-.43,3.22a4.68,4.68,0,0,1-.7,2,4.12,4.12,0,0,0-.35.67c-.47,1-.43,1.14.68,1.39a.59.59,0,0,1,.55.68,3.27,3.27,0,0,0,0,.5,2.73,2.73,0,0,0,2,2.62,2.57,2.57,0,0,1,0,2.85c-5.75,2.69-10.71,6.58-15.76,10.33a26.21,26.21,0,0,1-3.11,2.3.22.22,0,0,1-.28,0l-.43,0c-.61-.53-.4-1.25-.41-1.89q0-11.84,0-23.68,0-.63,0-1.26a.72.72,0,0,0-.87-.81c-.25,0-.5,0-.76,0H209.24c-1.69,0-1.7,0-1.7,1.75q0,16.44,0,32.88c0,1.67,0,1.67,1.65,1.67q15.05,0,30.11,0a12.69,12.69,0,0,1,3.36.35c1.65.45,3.22,1.11,4.89,1.49a21.84,21.84,0,0,0,12.31-.44,14.49,14.49,0,0,0,4.89-2.67c.28-.2.6-.62,1-.23a.71.71,0,0,1-.1,1.1c-.29.27-.19.62-.19.94,0,1.92,0,3.85-.07,5.76-.12,2.33-.09,4.67-.26,7a4.48,4.48,0,0,0,2.33,4.48c-.67,4-1.23,7.93-2,11.87-.64,3.33-1.3,6.65-2.14,9.94a46.17,46.17,0,0,0-1.2,9.06,13.68,13.68,0,0,1-.27,2.11,1.48,1.48,0,0,1-1.15.41H97.3a9.85,9.85,0,0,1-1.88-.07c-.75-.18-1-.81-1.32-1.41a152.61,152.61,0,0,1-8.38-21.16c-1.18-3.76-2.25-7.56-3.12-11.41-.12-.52-.36-1.05,0-1.57.83-.28,1.65-.58,2.49-.84a1,1,0,0,0,.81-1.05c-.07-2.67-.23-5.34-.39-8-.12-2.08-.46-4.15-.52-6.23a27.38,27.38,0,0,1,4.42-1.08,13.29,13.29,0,0,0,5-4,32,32,0,0,0,3.08-4.53,3.06,3.06,0,0,1,2.06-.37H136c1.48,0,1.49,0,1.49-1.46q0-6.17,0-12.34c0-3.53,0-7.05,0-10.58,0-1-.31-1.37-1.36-1.37q-21.21,0-42.43,0c-1,0-1.37.33-1.37,1.37,0,5.58,0,11.16,0,16.75A3.41,3.41,0,0,1,92,59.78a13.06,13.06,0,0,1-4.37,3.3.94.94,0,0,1-1.35-.38,24.91,24.91,0,0,0-9.11-7.48,5.45,5.45,0,0,1-1.3-.73,3.74,3.74,0,0,1,0-3.47,3.39,3.39,0,0,0,2.23-2.65,12.91,12.91,0,0,0,0-5.95,4.13,4.13,0,0,0-1.38-4.65c-.28-.23-.59-.44-.89-.65a2.18,2.18,0,0,1-.36-1.56q0-13.92,0-27.85c0-1.69.27-2,2-2,.46,0,.92,0,1.39,0H269.39c3.48,0,3.48,0,3.48,3.44q0,13.11,0,26.21a3.49,3.49,0,0,1-.41,2.19,5.22,5.22,0,0,0-1.65,2.25A1.8,1.8,0,0,0,270.72,40.86Z"/><path class="cls-17" d="M261.85,127.59c0,.58,0,1.17,0,1.75-.11,2.93-.08,5.86.08,8.78.14,2.61.26,5.24.65,7.84.06.41.06.83.08,1.25.23.71-.14,1-.78,1.12a8.22,8.22,0,0,1-1.38.07q-54.9,0-109.81,0H102.36a12.41,12.41,0,0,1-2.26-.09c-1-.36-.53-.76,0-1a15.57,15.57,0,0,0,3.45-2c1.41-1.11,1.44-1.16.45-2.59A119.87,119.87,0,0,1,95.79,129c-.28-.56-.93-1.28.2-1.74a6.79,6.79,0,0,1,1.51-.07H259.81C260.5,127.21,261.25,127,261.85,127.59Z"/><path class="cls-4" d="M333.44,150a88.63,88.63,0,0,1-4,10.94,73,73,0,0,1-5.28,9.7,56.74,56.74,0,0,1-3.51,4.89,47.53,47.53,0,0,1-4.51,5.05,41.45,41.45,0,0,1-7.4,5.76,2.59,2.59,0,0,0-.45.43H301.9l-.69-14.53a4.64,4.64,0,0,0,2.32-4.26c0-1.19.1-2.41.2-3.61,1.19-2.81,3.08-5.17,4.78-7.66a2,2,0,0,1,1.91-.72,20.37,20.37,0,0,0,13.48-4.71,28.12,28.12,0,0,0,3.45-3.44,22.56,22.56,0,0,1-13.5,7.89,15,15,0,0,1-3,.11c-1.2,0-1.38-.37-.72-1.35s1.58-2.17,2.41-3.23c4.08-5.22,8.2-10.41,11.8-16,.2-.31.34-.7.81-.71a34.1,34.1,0,0,1,4.47,6.82A56.26,56.26,0,0,1,333.44,150Z"/><path class="cls-4" d="M303.76,160.08c.36-.4.2-.88.2-1.33,0-5.21,0-10.41,0-15.62a6.94,6.94,0,0,1,.79-3.25,85.5,85.5,0,0,1,8.16-13.23c.68-.9,1.44-1.73,2.16-2.6a12.27,12.27,0,0,1,3.89,3.68c-.54,1.94-1.57,3.7-2,5.68a23.54,23.54,0,0,0-.29,10.59,3,3,0,0,1-.63,2.68c-3.06,3.89-6.09,7.8-8.91,11.87-.84,1.21-1.55,2.49-2.41,3.69-.25.35-.35.89-1,.86A13.92,13.92,0,0,1,303.76,160.08Z"/><path class="cls-4" d="M291.41,172.69q0,3.77-.09,7.54a3,3,0,0,1-.16,1.11c-.62,1.6-1.23,3.2-1.8,4.82a.89.89,0,0,1-1,.68c-1.59,0-3.19,0-4.78,0-.52,0-.71-.14-.75-.7-.16-3-.32-5.92-.6-8.87-.12-1.29-.11-2.58-.3-3.87.07-.45.49-.53.78-.75a4.33,4.33,0,0,0,1.83-4.25l-.37-2.7c-.26-.1-.23-.28-.13-.47a24.89,24.89,0,0,0-.31-3.73c-.19-2.33-.48-4.64-.7-7-.25-2.74-.46-5.48-.68-8.22,0-.62,0-1.25-.05-1.88-.16-3.26-.33-6.51-.29-9.77a1.71,1.71,0,0,1,.23-1.2,43.83,43.83,0,0,1,.13-12.27.28.28,0,0,1,.4-.13c.53,5.32,1,10.65,1.59,16,.55,5.11,1.15,10.21,1.76,15.31.48,4,1,8,1.51,12.07.05.41.15.82.23,1.23a.47.47,0,0,1,0,.61c.09.73.19,1.47.28,2.2A4.89,4.89,0,0,0,291.41,172.69Z"/><path class="cls-18" d="M99.51,147.91c.5,0,1,.06,1.51.06H261c.29,0,.59,0,.88,0,.57,0,.73-.28.75-.76.41.55.12,1.19.21,1.78a1.76,1.76,0,0,1-1.41.4c-2.85,0-5.7.06-8.55,0-.4,0-.81,0-1.21,0-3.22,0-6.44,0-9.66,0h-1c-4.83.09-9.66,0-14.48,0H200.9c-2.13,0-2.13,0-2.13,2.18q0,16.5,0,33c0,.74.17,1.53-.39,2.17h-.77a1.82,1.82,0,0,1-.39-1.41q0-13.69,0-27.38a3.77,3.77,0,0,1,.07-.75,2,2,0,0,1,.14-.44,2.11,2.11,0,0,0,.34-1.29c0-1.74,0-3.49,0-5.23,0-.39.21-1-.55-1-3.49.26-7,.09-10.47.1q-12.55.08-25.1,0c-3.44,0-6.87.07-10.31,0-.54-.09-.74.13-.74.67,0,1.87,0,3.74,0,5.61,0,.5.34.72.59,1a1.67,1.67,0,0,1,.15.43,28.44,28.44,0,0,1,.07,3.39q0,12.05,0,24.11c0,.74.15,1.52-.42,2.16h-1c-.56-.65-.39-1.43-.39-2.17q0-15.93,0-31.86c0-.42,0-.84,0-1.26,0-2.06,0-2.06-2.12-2.06H116.71a13.5,13.5,0,0,1-1.64,0h-1c-5.48.07-11,0-16.43,0a2.74,2.74,0,0,1-1.23-.21.5.5,0,0,1-.26-.59A4.59,4.59,0,0,1,99.51,147.91Z"/><path class="cls-4" d="M252.79,149h10.1c.32,1.8.63,3.61,1,5.4a73,73,0,0,0,4.71,15.54,5.33,5.33,0,0,0,3.91,3.51v6.73a.58.58,0,0,1,0,.79c-.23-.17-.43-.32-.75-.08-.67.49-1.37.92-2.07,1.38-.9.46-1.09-.33-1.35-.84-1.17-2.27-2.35-4.54-3.44-6.86-3.19-6.84-6.7-13.53-10-20.29-.67-1.35-1.21-2.77-1.91-4.1C252.72,149.81,252.48,149.42,252.79,149Z"/><path class="cls-19" d="M261.85,127.59H97.26c-.59,0-1.17,0-1.76,0s-.66-.37-.44-.85H261.84Z"/><path class="cls-6" d="M303.73,163.1c1.23-1.69,2.26-3.51,3.45-5.22,2.22-3.19,4.6-6.26,7-9.35.63-.83,1.3-1.64,1.93-2.46a1.66,1.66,0,0,0,.35-1.5,20.59,20.59,0,0,1-.6-5.71,25,25,0,0,1,2-9c.35-.76.68-1.53,1-2.29a1.64,1.64,0,0,1,.95-1.51.44.44,0,0,1,.62.26c.29.72-.29,1.16-.58,1.7A23.73,23.73,0,0,0,317.29,144a120,120,0,0,0,7.1-10.2,56.44,56.44,0,0,0,5.75-12c.19-.58.31-1.58,1.18-1.27s.29,1.1.11,1.67A60.2,60.2,0,0,1,326,133.77c-.21.36-.42.74-.87.86-2.52,3.9-5.23,7.65-8.06,11.33q-3.21,4.17-6.44,8.32a6.11,6.11,0,0,0-.75,1.2,17.05,17.05,0,0,0,8.75-1.47,22.16,22.16,0,0,0,8.56-6.61,2.2,2.2,0,0,1,.16-.2.36.36,0,0,1,.55,0c.16.14.12.29,0,.44-.22.3-.42.63-.66.91a23.36,23.36,0,0,1-6.83,5.46,21.24,21.24,0,0,1-6.27,2.12,16.49,16.49,0,0,1-3.75.19,2,2,0,0,0-2,1c-1.37,2.11-2.84,4.14-4.08,6.32-.17.29-.27.62-.61.77A3.62,3.62,0,0,1,303.73,163.1Z"/><path class="cls-20" d="M282.55,121c-.44,3.67-.14,7.35-.25,11,0,.45.52,1-.07,1.38-.36,0-.46-.26-.49-.6a64,64,0,0,1-.16-8c.19-3,.3-5.93.7-8.88a7.64,7.64,0,0,1,3.09-5.52c1.39-1,2.7-2.12,4.05-3.19.13-.1.25-.22.39-.32s.37-.22.55,0a.34.34,0,0,1-.06.54l-.59.47c-1.4,1.13-2.79,2.28-4.22,3.38a6.06,6.06,0,0,0-2.4,4c-.23,1.48-.34,3-.51,4.48a1.32,1.32,0,0,1,.07.55C282.64,120.54,282.72,120.8,282.55,121Z"/><path class="cls-21" d="M284,165.2l.13.47a1.42,1.42,0,0,1-1,.48,34.64,34.64,0,0,1-10.86.53c-1.21-.14-2.41-.27-3.61-.45a3.55,3.55,0,0,1-.61-.14c-.21-.07-.37-.22-.29-.47a.33.33,0,0,1,.4-.21c.62.09,1.24.2,1.86.29A35.48,35.48,0,0,0,284,165.2Z"/><path class="cls-22" d="M287.85,166.22q0-.3,0-.61c2.21.15,4.39.54,6.61.56a26.7,26.7,0,0,0,7.69-.85c.33-.1.81-.41,1,.08s-.44.5-.74.6a16,16,0,0,1-4.17.8A37.79,37.79,0,0,1,287.85,166.22Z"/><path class="cls-23" d="M296.38,133.44H299a2,2,0,0,1,.5,0c.23.06.54.09.48.44s-.26.4-.56.33a15.38,15.38,0,0,0-2.87-.11,34.87,34.87,0,0,0-4.74.24c-.3,0-.79.17-.82-.3s.47-.4.77-.42A27.21,27.21,0,0,1,296.38,133.44Z"/><path class="cls-24" d="M274.67,135.55a34.85,34.85,0,0,0-7,.06c-.41.05-1.15.26-1.19-.21-.07-.74.74-.44,1.16-.49a32.46,32.46,0,0,1,6.37-.2,2.77,2.77,0,0,1,1,.12c.19.09.43.15.38.41s-.25.32-.47.33Z"/><path class="cls-25" d="M282.55,121a1.09,1.09,0,0,1,0-.75q.1-.19.19,0V121Z"/><path class="cls-26" d="M282.75,120.29h-.19l0-.53A.49.49,0,0,1,282.75,120.29Z"/><path class="cls-16" d="M252.23,67.38a1.49,1.49,0,0,1-.85.13c-1.86-.26-3.74-.16-5.6-.26a2.61,2.61,0,0,1-.48-.12,1.54,1.54,0,0,1-.45-1.38c0-2.22-.05-4.44,0-6.66-.05-3.44,0-6.89,0-10.33,0-1.61-.09-1.68-1.73-1.69-2.26,0-2.26,0-2.26,2.3,0,3.23,0,6.47,0,9.7.07,2.14,0,4.28,0,6.42a1.55,1.55,0,0,1-.45,1.38c-1.23.38-2.45-.15-3.68-.08a1.69,1.69,0,0,1-.44-1.39c0-4.35-.05-8.7,0-13,0-1.38,0-2.76,0-4.15,0-.77-.29-1.16-1.11-1.16-3.37,0-2.87-.21-2.92,2.74,0,.84,0,1.68,0,2.51.07,3.72,0,7.43,0,11.15a3.16,3.16,0,0,1-.15,1.11c-.38.59-1.17.74-1.42,1.56-.15.49-2,.15-2.81-.48a44.75,44.75,0,0,1-.17-6.86c-.05-3.36,0-6.72,0-10.08,0-1.55-.11-1.63-1.65-1.65-2.35,0-2.34,0-2.35,2.33,0,3.11,0,6.22,0,9.32,0,3.35,0,6.7,0,10,0,1.6.11,1.71,1.72,1.7a16.38,16.38,0,0,0,2.51,0,33.57,33.57,0,0,1,7,1.67,66,66,0,0,0,6.1,3.52c-.42.48-1,.4-1.52.4H209.13c-1.52,0-1.69-.18-1.7-1.65q0-16.5,0-33c0-1.42.19-1.63,1.58-1.63q21,0,42,0c1.39,0,1.57.21,1.57,1.64q0,12.35,0,24.69C252.54,66.53,252.67,67,252.23,67.38Z"/><path class="cls-27" d="M252.23,67.38c0-3.48,0-7,0-10.45q0-7.49,0-15c0-.21,0-.42,0-.63,0-1.21,0-1.21-1.28-1.22H208.67c-.92,0-.92,0-1,.9,0,.21,0,.42,0,.63q0,16.25,0,32.5c0,1.71-.13,1.55,1.57,1.55h30.36c.46,0,.92,0,1.38,0a6.26,6.26,0,0,1,1.64.75c-.46,0-.92.05-1.38.05H208.66c-1.63,0-1.51.13-1.51-1.48q0-17.06,0-34.12c0-.21,0-.42,0-.63,0-.58.19-.87.79-.82.25,0,.5,0,.76,0h42.56c1.7,0,1.56-.14,1.56,1.56q0,12.47,0,24.93c0,.5,0,1,0,1.51A.46.46,0,0,1,252.23,67.38Z"/><path class="cls-5" d="M236.68,52.21q0,7.29,0,14.59l-.28.07c-1.64-.43-3.33-.72-4.61-2q0-5.65,0-11.3c0-.46,0-.92,0-1.38A6.53,6.53,0,0,1,236.68,52.21Z"/><path class="cls-10" d="M231.82,64.88l4.09,1.67a1,1,0,0,1,.52.31c-.41,1.78-.94,3.52-1.51,5.25a57.64,57.64,0,0,1-6.79-1.44,1.3,1.3,0,0,1-1.64-1.27,5,5,0,0,1,.89-3.39.58.58,0,0,1,.78-.21l2.41.2a.27.27,0,0,0,.06-.37c-.35-.81-.31-.88.46-.84C231.33,64.8,231.57,64.85,231.82,64.88Z"/><path class="cls-5" d="M245.22,59q0,4,.07,8.08a26.64,26.64,0,0,1-4.9-.25q0-3.92.07-7.83A6,6,0,0,1,245.22,59Z"/><path class="cls-28" d="M265.61,75.62v-1c-.44,0-.63.27-.88.47A13.78,13.78,0,0,1,261,77.36c-.36.13-.76.44-1.16.06a.58.58,0,0,1,.45-.53,16.9,16.9,0,0,0,5.47-3.7c1-1,1.86-2,2.88-2.94.19-.17.37-.34.56-.5a.23.23,0,0,1,.33,0,.48.48,0,0,1,.09.34,1.16,1.16,0,0,1-.52.69,3.66,3.66,0,0,0-1.21,2.64,10.35,10.35,0,0,1-2.09,5.19A17.46,17.46,0,0,1,265.61,75.62Z"/><path class="cls-29" d="M273.89,51.94l2.54-1a.29.29,0,0,1,.37.06,8.69,8.69,0,0,1-1.88,3c-.34.06-.6.39-1,.31A2.25,2.25,0,0,1,273.89,51.94Z"/><path class="cls-30" d="M253.29,67.41h.28a.66.66,0,0,1,0,.89,5,5,0,0,0-1.23,3.7c0,.25,0,.55-.33.57s-.41-.35-.4-.63A6,6,0,0,1,253.29,67.41Z"/><path class="cls-31" d="M272.44,54.76l0-2.85,1,0a2.69,2.69,0,0,1,0,2.47A2.3,2.3,0,0,1,272.44,54.76Z"/><path class="cls-17" d="M273.47,54.41q0-1.23,0-2.47h.46l.05,2.3Z"/><path class="cls-2" d="M95.06,126.78a1.5,1.5,0,0,0,.44.85,71.4,71.4,0,0,0,3.8,7.06,101.64,101.64,0,0,0,5.62,8.61c.4.56.4.91-.11,1.36a15.85,15.85,0,0,1-4.28,2.81l-1,.45a14.19,14.19,0,0,1-3.21.6A2.51,2.51,0,0,1,94,149c-1.7-.16-3.37-.57-5.06-.8a7.21,7.21,0,0,0-4.47.77,11.88,11.88,0,0,0-2.12,1.95c-1.84,1.91-4.13,2.24-6.61,1.83-1.49-.24-2.94-.69-4.41-1A56.47,56.47,0,0,0,63.49,150a12.75,12.75,0,0,0-4,.08,4.88,4.88,0,0,0-2.1.67,3.31,3.31,0,0,0-.72.6c-.5.5-1,1-1.48,1.51-.37.34-.92.4-1-.16-.08-1.41-.75-2.82-.12-4.25a5,5,0,0,0-.23-2.26,34,34,0,0,0-.24-5c-.16-3.75-.42-7.5-.57-11.25-.1-2.46-.09-4.93-.25-7.39-.13-1.92-.12-3.84-.14-5.76,1.6.46,3.2.94,4.8,1.39.9.25.95.23,1.22-.68q2.46-8.27,4.91-16.55c.26-.88.25-.89-.66-1.39,0-.54.46-.55.79-.64a69.57,69.57,0,0,0,14.88-6.09,13.08,13.08,0,0,0,1.47-.63,10.72,10.72,0,0,1,2.48-.65c.6,3.08,1.45,6.1,2.32,9.12a158.27,158.27,0,0,0,9.46,24.87C94.6,126,94.84,126.38,95.06,126.78Z"/><path class="cls-16" d="M98,64.81l1.56-3.26a2.86,2.86,0,0,1,2.05-.39h30.21c.38,0,.76,0,1.13,0,.83,0,1.23-.34,1.24-1.19,0-4.41,0-8.81,0-13.22,0-1.07-.43-1.31-1.47-.95a4.59,4.59,0,0,0-2.21,1.8,3.23,3.23,0,0,1-1.66,1.47,5,5,0,0,1-5.32-1.41c-2.61-3.1-6.13-2.41-9.15-.77-.81.44-1.63.85-2.48,1.21a4.17,4.17,0,0,1-4.55-.88,11.33,11.33,0,0,1-1.17-1.14c-3.1-3.38-7.5-2.11-9.93.08-.87.79-.6,1.85-.6,2.85.05,1.78,0,3.55,0,5.32a2.46,2.46,0,0,1-.35,1.42,26.15,26.15,0,0,1-2.27,3c-.69-.15-.62-.73-.62-1.2q0-8.18,0-16.37a1.29,1.29,0,0,1,1.47-1.47h42.3a1.22,1.22,0,0,1,1.33,1.34c0,1.13,0,2.27,0,3.4q0,9.57,0,19.14c0,1.84-.11,1.95-1.9,1.95q-18.07,0-36.13,0C98.93,65.55,98,66,98,64.81Z"/><path class="cls-17" d="M128.53,48.91a3.15,3.15,0,0,0,1.68-1.57,4.72,4.72,0,0,1,2.6-2.05,3.58,3.58,0,0,1,1.12-.13c.48,0,.68.24.67.7,0,.21,0,.42,0,.63q0,6.86,0,13.72c0,.21,0,.42,0,.63,0,.46-.18.71-.66.7H99.57c.3-.95.61-1.9.91-2.85a4.46,4.46,0,0,0,.37-1.7,28.7,28.7,0,0,1,1.88-6.26c.62-.32,1,.16,1.47.42a21.28,21.28,0,0,0,4,2.13,4.78,4.78,0,0,0,5.57-1.46,10.61,10.61,0,0,1,1.94-2,3.3,3.3,0,0,1,4.08,0c.87.59,1.54,1.42,2.39,2,1.79,1.3,3.21,1.24,4.85-.25a10,10,0,0,0,1.57-2A.56.56,0,0,0,128.53,48.91Z"/><path class="cls-16" d="M55.71,98.35c2.17.62,4.34,1.24,6.51,1.87.82.24.83.26.57,1.13q-2,6.92-4.08,13.85c-.13.44-.25.88-.39,1.32-.33,1.08-.38,1.1-1.51.76l-6.26-1.83-14.08-4.17-.6-.19c-1-.34-1-.34-.74-1.36L39.46,95c0-.12.06-.24.1-.36.32-1,.38-1,1.34-.73l4.82,1.41L48,96a2.51,2.51,0,0,1,1.11.55,9.11,9.11,0,0,1,0,2c-.82,3.68-2.09,7.23-3.09,10.86-.12.44-.3.85-.38,1.28.71-1.3.55-2.93,1.55-4.14.79.13,1.28,1,2.26.82.37-.08.39.44.42.76-.23,1.22-.68,2.39-1,3.82.57-1.42.67-2.76,1.37-3.88a2.75,2.75,0,0,0,2.31-1.9c.12-.36.31-.9.82-.79s.52.6.57,1c-.39,2.13-1.21,4.15-1.68,6.26.61-2.13,1.37-4.22,1.82-6.4a7.28,7.28,0,0,1,.56-2,20,20,0,0,0,1-2.85.87.87,0,0,0-.25-.91.29.29,0,0,1,.08-.31Z"/><path class="cls-8" d="M80.14,92.23a5.46,5.46,0,0,1-2,1.27,63.27,63.27,0,0,1-8,3.67c-2.31.86-4.64,1.64-7,2.28-.07,0-.13.1-.19.16-2.46-.51-4.81-1.4-7.23-2a44,44,0,0,1,.74-5.49,30,30,0,0,0,6,1.57,40.28,40.28,0,0,0,9.38,0C74.66,93.38,77.38,92.71,80.14,92.23Z"/><path class="cls-31" d="M98,64.81c.06.27.18.47.49.47h37.67c.94,0,1,0,1-1q0-11.59,0-23.18c0-1,0-1-1-1H94.31c-1.7,0-1.58-.15-1.58,1.54q0,7.94,0,15.87c0,.43-.21.94.26,1.28a3.42,3.42,0,0,1-1,1Q92,50.4,92,41c0-.29,0-.59,0-.88,0-.51.16-.8.72-.77.29,0,.59,0,.88,0H136.3c1.69,0,1.55-.14,1.55,1.57q0,11.65,0,23.29c0,.13,0,.25,0,.38,0,1.22,0,1.23-1.26,1.23h-39C97.75,65.52,97.68,65.08,98,64.81Z"/><path class="cls-9" d="M102.9,50.72A45.83,45.83,0,0,1,100.85,57c-1.76-.53-3.47-1.22-5.28-1.58A13.94,13.94,0,0,1,96.13,50a.8.8,0,0,1,1-.66c.49.13.68-.15.84-.51.41-.59.58-1.52,1.49-1.5,1.22,0,2.5.08,3.4,1.1A1.52,1.52,0,0,1,102.9,50.72Z"/><path class="cls-9" d="M55.45,100.3l.07.27c.52,1-.23,1.81-.28,2.72a3,3,0,0,1-.29,1.17l-.52,1.84c-.17.38-.42.28-.68.11a1.59,1.59,0,0,0-.47-.86c-.48.75-.78,1.59-1.31,2.3-.34.46-.64.82-1.17.23,0,0-.29.09-.45.15-.21.39-.44.29-.68,0s.14-.75-.35-.52-.9.17-1.21-.36c-.17-.29-.75-.2-.74-.71a.93.93,0,0,1-.14-.93,47.21,47.21,0,0,1,1.5-5c.14-.39.29-.8.84-.75Z"/><path class="cls-32" d="M89.44,74.36A8.23,8.23,0,0,1,85,75.44L83.88,68C85.49,68.43,88.37,71.76,89.44,74.36Z"/><path class="cls-33" d="M56.07,91.79c-.16,0-.31-.12-.28-.33s.11-.57.17-.86a83.61,83.61,0,0,1,4.34-14.42,18.57,18.57,0,0,1,2.55-4.47c.21-.26.44-.8.87-.48s-.08.67-.27.91C61.24,75,60.13,78.42,59,81.81a85.8,85.8,0,0,0-2.36,9c-.05.25-.14.48-.21.72A.34.34,0,0,1,56.07,91.79Z"/><path class="cls-34" d="M49.57,100a.84.84,0,0,0-.41.44,39.62,39.62,0,0,0-1.78,6.22c-.58,1.34-.8,2.79-1.32,4.14-.12.31,0,1-.66.8-.49-.19-.06-.69,0-1,1.07-3.77,2.18-7.52,3.29-11.27a1,1,0,0,1,.46-.71C49.47,99,49.29,99.57,49.57,100Z"/><path class="cls-35" d="M98.22,49a3.93,3.93,0,0,1-.55,1.09c-.15,0-.27,0-.32-.11s-.15-.51-.47-.5-.42.3-.46.53c-.22,1.06-.43,2.13-.6,3.2-.12.74-.17,1.49-.25,2.23l-.29.32,0-7.1A3.37,3.37,0,0,1,98.22,49Z"/><path class="cls-21" d="M72,61.38a1.2,1.2,0,0,1,1.09,1.28,1.12,1.12,0,0,1-1.15,1.07,1.08,1.08,0,0,1-1.14-1.19A1.17,1.17,0,0,1,72,61.38Z"/><path class="cls-36" d="M52,77.67a4.8,4.8,0,0,1,2.27.54c.18.09.38.22.3.47s-.31.27-.51.18a6.7,6.7,0,0,0-2.66-.5c-.26,0-.51-.08-.49-.41s.27-.27.47-.28S51.83,77.67,52,77.67Z"/><path class="cls-37" d="M75.87,51v3.47L75,54.29h0a3.41,3.41,0,0,1,0-3.07Z"/><path class="cls-4" d="M198.37,186.76q0-18,0-36c0-1.95-.22-1.76,1.74-1.76h39.56c.5,0,1,0,1.51,0a1.83,1.83,0,0,1,.34,1.43,52.37,52.37,0,0,0,2.23,15.72c2.6,8.32,7.19,15.16,14.78,19.75.34.21.81.32.79.86-.42,0-.84,0-1.26,0H199.62C199.2,186.82,198.78,186.78,198.37,186.76Z"/><path class="cls-4" d="M114.93,149l6.3,0h28.1a.54.54,0,0,1,.61.62c0,.38,0,.76,0,1.13q0,18,0,36c-.33,0-.67.05-1,.05H102.21c-.29,0-.59,0-.88,0-.12-.55.29-.85.6-1.17A45.46,45.46,0,0,0,112.36,169a44.39,44.39,0,0,0,2.25-10.29,35.67,35.67,0,0,0,0-8.15A1.86,1.86,0,0,1,114.93,149Z"/><path class="cls-17" d="M197.55,156.82c0,.54,0,1.09,0,1.63q0,14.15,0,28.31c-.33,0-.67.05-1,.05H151.83c-.29,0-.58,0-.88,0q0-14.16,0-28.32c0-.55,0-1.09,0-1.64a1.63,1.63,0,0,1,1.16-.38c3.34,0,6.69-.09,10,0,.72.09,1,.67,1.33,1.21a12.43,12.43,0,0,0,21.73-.6c.22-.42.36-1,1.07-.82,3.11.34,6.23.06,9.35.16C196.3,156.45,197,156.29,197.55,156.82Z"/><path class="cls-4" d="M54.95,186.78c-1.31-.41-2.63-.79-3.92-1.24a35.4,35.4,0,0,1-10.8-6c-1.17-.95-2.35-1.87-3.42-2.94a49.86,49.86,0,0,1-7.72-9.83,59.18,59.18,0,0,1-5.27-11.23,4.74,4.74,0,0,1-.11-.49,39.18,39.18,0,0,1,3.56-14.21c.6-.51.93.1,1.24.38,2.19,2.06,4.35,4.16,6.38,6.38s3.93,4.21,5.74,6.45c.37.45,1,.81.65,1.58a1,1,0,0,1-.85-.05c-4.71-1.67-9.3-3.63-13.82-5.73a111.6,111.6,0,0,0,11,4.75c.9.34,1.79.74,2.72,1,.35.1.71.33,1.05,0,.58-.16.83.29,1.11.63a157.61,157.61,0,0,1,15.71,23.24c.61,1.1,1.25,2.19,1.79,3.33a1.7,1.7,0,0,0,1,1c.48.95,0,2,.36,3Z"/><path class="cls-4" d="M96.27,148.94l16.15,0c.58,0,1.17,0,1.75,0a6.33,6.33,0,0,1,.58,3.29,43.29,43.29,0,0,1-1.9,15.13,42.85,42.85,0,0,1-9.1,16c-.59.65-1.09,1.37-1.72,2a4.82,4.82,0,0,1-2,1.3l-13.61,0c-.75,0-1.51,0-2.26,0a1.37,1.37,0,0,1-.33-1.17c.27-3.32.4-6.66.72-10a1.75,1.75,0,0,1,.4-1.16,1.35,1.35,0,0,1,1.31-.2c2.3.65,4.64,1.13,6.92,1.86a1.27,1.27,0,0,1,.63.39c.31.55.05,1-.14,1.56-.88,2.31-1.77,4.63-2.46,7,.77-2.3,1.58-4.59,2.48-6.84a2.42,2.42,0,0,1,1-1.43c1.66-.27,3.06.76,4.7.88-.87-1.77-2.11-3.36-2.83-5.22a2.76,2.76,0,0,1,.28-1.59,52.23,52.23,0,0,1,2.58-5.32c.74-1.4,2.27-1.81,3.55-2.49a26,26,0,0,1,6.65-2.3,26.38,26.38,0,0,0-7,2.32c-.26.13-.52.28-.8.38s-.65.36-.94.1-.1-.71.06-1c.94-1.93,2.08-3.74,3.15-5.6.83-1.44,1.69-2.86,2.54-4.29a140.05,140.05,0,0,0-8.66,15.6c-.5,1.07-.75,2.33-1.85,3.06-.85-.22-1-1-1.38-1.65a24.61,24.61,0,0,0-2.08-3.23,1.54,1.54,0,0,1-.2-1.12,33.77,33.77,0,0,0,1-4.16c.49-2.79,1.12-5.55,1.62-8.34.21-.93.36-1.87.59-2.79C95.71,149.6,95.67,149.06,96.27,148.94Z"/><path class="cls-4" d="M54.15,148.47c.13,1.47.34,2.94.35,4.66A12.56,12.56,0,0,1,56.69,151a14,14,0,0,1,3.09,4.94,54.23,54.23,0,0,1,.55,7.35c.17,2.4.35,4.82.39,7.23a1.5,1.5,0,0,1-.24,1.18c-.08,1.92.23,3.83.26,5.75s.4,4.07.24,6.12c-.66,0-.8-.58-1-1a165.66,165.66,0,0,0-9.76-16.14,1.79,1.79,0,0,1-.4-1.29c.55-3.65.75-7.33,1.16-11-.4,3.1-.61,6.23-1,9.34-.05.44.06,1-.46,1.21s-.83-.45-1.11-.83a164.87,164.87,0,0,0-12.27-15c-2.61-2.79-5.3-5.49-8-8.14a1.25,1.25,0,0,1-.48-.71,42.74,42.74,0,0,1,5.4-9.18A25.93,25.93,0,0,1,37,133a64.32,64.32,0,0,1,8.69,6.15,67.45,67.45,0,0,1,7.78,7.65C53.92,147.33,53.78,148,54.15,148.47Z"/><path class="cls-4" d="M242,149h9.84a2.77,2.77,0,0,1,1,1.38c2.14,4.28,4.29,8.55,6.4,12.84.3.6,1,1.3.49,1.93s-1.43.34-2.16.22a17.11,17.11,0,0,1-11.32-6.73c1.82,3,5.87,5.7,10.4,6.61a4.92,4.92,0,0,0,1.61.27c1.74-.25,2.47.71,3.15,2.16,2.18,4.58,4.51,9.1,6.76,13.64.25.51.67,1,.49,1.64-1.71,1.19-3.41,2.38-5.12,3.56-.83.57-1.77.24-2.67.26-2.65-.67-4.72-2.34-6.69-4.09-6-5.34-9.48-12.17-11.28-19.91a48.74,48.74,0,0,1-1.26-12.22A2.19,2.19,0,0,1,242,149Z"/><path class="cls-4" d="M71.35,151.52a36.49,36.49,0,0,1,4.26.94A6.74,6.74,0,0,0,82.74,150a9,9,0,0,1,1.41-1.22c.71.82.13,1.68.08,2.53-.46,2.5-.87,5-1.27,7.54-.79,4.24-1.44,8.5-2.22,12.74-.17.91.15,1.26,1,1.52,1,.3,2.2.24,2.9,1.27,0,2.47-.36,4.91-.52,7.36-.09,1.33,0,2.67-.19,4-.06.37,0,.76-.26,1.06-.38,0-.75,0-1.13.05-2.93,0-2.89,0-4.81-2.14-1.77-2-3.64-3.82-5.47-5.73-.26-.27-.51-.58-.94-.26,0-.35-.2-.66-.22-1,.27-.14.27-.39.27-.64q0-2.91,0-5.82a1.8,1.8,0,0,1-.4-1.41c0-4.81-.06-9.63,0-14.44C71.07,154.09,70.56,152.74,71.35,151.52Z"/><path class="cls-4" d="M23.69,160.86c.38.25.76.52,1.15.76a4.52,4.52,0,0,1,1.64,2,55.37,55.37,0,0,0,7.21,10.69,43.09,43.09,0,0,0,8.9,7.87,36.18,36.18,0,0,0,8.55,4.17,2.12,2.12,0,0,1,1,.44c-3.06,0-6.13,0-9.19,0s-6.3,0-9.44,0c-.78-.47-1.74,0-2.52-.48a27.38,27.38,0,0,1-3.3-6.17c-.68-1.49-1.2-3-1.75-4.58a1.7,1.7,0,0,1-.13-1.22c.59-.43.8.16,1.05.45,1.29,1.49,2.38,3.13,3.64,4.64-1.52-2.35-3.36-4.44-5.06-6.64a2.36,2.36,0,0,1-.7-1.31,62.11,62.11,0,0,1-1.37-8.94A1.94,1.94,0,0,1,23.69,160.86Z"/><path class="cls-4" d="M309.52,186.77a8.48,8.48,0,0,1,2-1.24A108.12,108.12,0,0,0,333.78,171a22.84,22.84,0,0,1,2.2-1.86,1.93,1.93,0,0,1,.34,1.66,58,58,0,0,1-1.85,11.45,23.38,23.38,0,0,1-4.78,3.26,17.91,17.91,0,0,0-2.28,1.23c-3.36,0-6.72,0-10.07,0C314.73,186.82,312.12,186.79,309.52,186.77Z"/><path class="cls-9" d="M71.32,155.3q0,8,0,15.92a9.85,9.85,0,0,1-1.11.15c-1.71,0-3.42.11-5.13.08-1.55,0-3.07.2-4.61.21l-1-16.09c-.11-.23-.17-.44.13-.58a44.06,44.06,0,0,0,8.29,0C69,154.9,70.23,154.62,71.32,155.3Z"/><path class="cls-6" d="M27.73,139.92q3.66,3.35,7,7c2.39,2.56,4.75,5.16,7,7.87,2.55,3.1,5,6.28,7.35,9.51a3.62,3.62,0,0,0,.4.36c.14-1.08.29-2,.38-3,.14-1.45.31-2.9.44-4.35.1-1.2.32-2.4.34-3.61,0-.26,0-.57.35-.57s.43.37.38.65c-.39,1.92-.39,3.89-.65,5.83-.15,1.15-.3,2.32-.34,3.48a2.73,2.73,0,0,1,0,1c-.52,1.11-.07,2,.55,2.85a136.18,136.18,0,0,1,9,14.92c.3.59.71,1.12,1.07,1.68v.26c-.53.34-.82.12-1.07-.39-.55-1.13-1.16-2.22-1.76-3.33a147.22,147.22,0,0,0-8.28-13.45c-2.3-3.33-4.68-6.6-7.28-9.71-.4-.48-.67-1.06-1.26-1.36h0c-.41-1.1-1.42-1.72-2.07-2.64a26.79,26.79,0,0,0-2-2.25c-2.42-2.71-5-5.3-7.56-7.83-.74-.73-1.51-1.42-2.27-2.14-1.45-.39-2.12-1.74-3.2-2.59-.2-.16-.15-.46.06-.66a.69.69,0,0,1,.92-.06A7,7,0,0,1,27.73,139.92Z"/><path class="cls-6" d="M268.65,183c-2.72-5.44-5.45-10.87-8.14-16.32a1.09,1.09,0,0,0-1.09-.77A17.37,17.37,0,0,1,247,160.19a20.59,20.59,0,0,1-1.65-2.2.36.36,0,0,1,.08-.55c.16-.1.33,0,.44.14.34.42.68.84,1,1.28a15.7,15.7,0,0,0,6.28,4.84,14.1,14.1,0,0,0,5.91,1.43.68.68,0,0,0,.67-.23L251.8,149h1c.7,1.56,1.35,3.15,2.11,4.68,3,6.12,6.15,12.19,9.13,18.34q2.27,4.69,4.59,9.36c.22.44.35,1,1,.89A3.25,3.25,0,0,1,268.65,183Z"/><path class="cls-6" d="M242,149c0,1.13,0,2.27,0,3.4a50.59,50.59,0,0,0,1.15,9.8,40.86,40.86,0,0,0,4.16,11.26,32.59,32.59,0,0,0,8,9.72,40.11,40.11,0,0,0,5.58,3.59,5.16,5.16,0,0,1-1.53,0,48,48,0,0,1-4.28-2.82,32.91,32.91,0,0,1-4.5-4.37,32,32,0,0,1-4.6-7A40.79,40.79,0,0,1,242.17,161c-.32-2-.58-3.95-.78-5.94s-.12-4-.2-6Z"/><path class="cls-13" d="M100.06,186.77a42.93,42.93,0,0,0,9.08-11.54,44.62,44.62,0,0,0,4.57-12.65,53.5,53.5,0,0,0,.7-11.35,19.33,19.33,0,0,1-.24-2.23h.76c-.07,2,.33,4,.27,6a48.86,48.86,0,0,1-1.65,11.35,40.35,40.35,0,0,1-3.37,8.49,46.65,46.65,0,0,1-6.09,8.86c-.91,1-1.94,2-2.76,3.07Z"/><path class="cls-13" d="M83.67,186.77q0-1.19,0-2.38c0-2.2.28-4.39.45-6.58.1-1.2.25-2.4.31-3.6.34-.21.63-.29.76.22a2.08,2.08,0,0,0-.23.7,21.33,21.33,0,0,1-.34,4.33c-.29,2,.07,4.07-.42,6.07a5.59,5.59,0,0,0,0,1.24Z"/><path class="cls-38" d="M71.11,177.67a1,1,0,0,1,.22,1L67,180.8c-.66-1.07-.66-1.08.31-1.56s1.94-1,2.94-1.39C70.48,177.74,70.76,177.46,71.11,177.67Z"/><path class="cls-39" d="M272.47,181l0-.79c.29-.14.56-.31.9,0,.74.6,1.52,1.16,2.28,1.73a.51.51,0,0,1,.12.83c-.27.36-.53.54-.91.21C274.11,182.22,273.18,181.72,272.47,181Z"/><path class="cls-17" d="M276.23,36.55a12.05,12.05,0,0,0-2.57.36c-.81-.44-.6-1.23-.6-1.9,0-5.88,0-11.76,0-17.63,0-3.44,0-6.89,0-10.33,0-1.41-.12-1.51-1.5-1.55-.42,0-.84,0-1.26,0h-192c-3.48,0-2.82,0-2.83,2.83,0,8.9,0,17.8,0,26.7,0,.61.15,1.28-.37,1.79l-.58,0c-.49-.36-1.05-.13-1.58-.18s-.62-.19-.62-.62,0-.59,0-.88c0-10,.05-19.91,0-29.86A4.26,4.26,0,0,1,76.57.81c.29,0,.59,0,.88,0H271.11a5.65,5.65,0,0,1,1.62.12c2.65.77,3.23,2.24,3.49,4.63a9.24,9.24,0,0,1,0,1Q276.23,21.56,276.23,36.55Z"/><path class="cls-16" d="M319.59,127.83a4.31,4.31,0,0,0,.4-.61c.14-.3.56-.68.08-1s-.53.25-.71.5-.25.61-.54.81c-1.22-1.22-2.73-2.13-3.78-3.52a70.7,70.7,0,0,1,6.46-6.66,64.21,64.21,0,0,1,8.41-6.34,45.64,45.64,0,0,1,8.21-4.07c.47-.18.93-.37,1.41-.54,1.16-.41,1.33-.31,1.2.95-.09.91-.16,1.83-.28,2.74-.28,2.11-.49,4.22-.72,6.34-.18,1.66-.46,3.3-.65,5-.16,1.41-.39,2.81-.56,4.22-.29,2.45-.7,4.87-1.12,7.3-.78,4.53-1.73,9-2.94,13.46-.33,1.21-.68,2.41-1,3.62-.38,0-.45-.28-.55-.57a56,56,0,0,0-3.72-8.21,44.36,44.36,0,0,0-3.25-5.19,3,3,0,0,1-.79-1.4c1.38-2.25,2.58-4.6,3.74-7a42.3,42.3,0,0,0,2.35-5.95,2.39,2.39,0,0,0,.13-.35c0-.27.22-.63-.2-.73s-.39.23-.48.47c-.42,1.18-.81,2.38-1.28,3.54a50.57,50.57,0,0,1-4.78,9.23c-.5.14-.78-.22-1-.52-1.21-1.42-2.38-2.88-3.7-4.19A1,1,0,0,1,319.59,127.83Z"/><path class="cls-16" d="M334.46,182.27a.54.54,0,0,1-.18-.66,55.74,55.74,0,0,0,1.48-9.08c.1-1.12.19-2.23.21-3.36.67-.63,1.35-1.24,2-1.89q2.44-2.42,4.86-4.87c.18-.18.58-.39.24-.7s-.54,0-.75.22c-1.28,1.27-2.54,2.55-3.83,3.81a18.61,18.61,0,0,1-2.28,2.15c-.54,0-.58-.48-.57-.82a78.45,78.45,0,0,0-.57-8.28,1,1,0,0,1,.13-.48,6.28,6.28,0,0,1,2.47-1.43,29.39,29.39,0,0,1,7.16-2.21,10.25,10.25,0,0,1,3.88-.29,42.81,42.81,0,0,1-1.47,7.24,46.6,46.6,0,0,1-3.06,8.21,38.93,38.93,0,0,1-5.39,8.27A25.79,25.79,0,0,1,334.46,182.27Z"/><path class="cls-4" d="M335.2,158.31a9.82,9.82,0,0,1,.49,2.68,30.65,30.65,0,0,1,.28,5.85c0,.36-.11.76.24,1.05a66.44,66.44,0,0,1-5.09,4.41,107.8,107.8,0,0,1-10,7.07c-1.7,1.07-3.44,2.07-5.17,3.07a3.07,3.07,0,0,1-1.38.57h0c.81-.78,1.65-1.53,2.44-2.33a62.35,62.35,0,0,0,9.12-11.92c1.09-1.84,2.11-3.71,3-5.64a4.46,4.46,0,0,1,1.36-1.76A22.54,22.54,0,0,1,335.2,158.31Z"/><path class="cls-4" d="M314.55,183s0,.1-.05.1-.06-.06.06-.1Z"/><path class="cls-40" d="M75.11,36.82q0-15.25,0-30.5c0-1.22,0-1.22,1.27-1.23h195.2c2.14,0,1.88-.25,1.88,1.87q0,14.24,0,28.48c0,.49-.14,1,.21,1.46l-1.21.61c0-.42,0-.84,0-1.26q0-14.24,0-28.47c0-.34,0-.67,0-1s-.2-.69-.68-.68c-.29,0-.59,0-.88,0H77.5c-1.78,0-1.6-.18-1.6,1.64q0,13.92,0,27.84c0,.5,0,1,0,1.51A1.17,1.17,0,0,1,75.11,36.82Z"/><path class="cls-16" d="M23.69,160.86A53.44,53.44,0,0,0,25,171c.05.24.22.47-.06.67-1.17-.33-1.67-1.41-2.4-2.21-2.93-3.18-6-6.17-9.13-9.19A.91.91,0,0,0,13,160,161.24,161.24,0,0,1,25,172.51c.41.49,1,.92.93,1.69a19,19,0,0,0,1.51,4.49,35.81,35.81,0,0,0,2.89,6.11A3.36,3.36,0,0,1,31,186.3a11.69,11.69,0,0,1-4.49-1,24.73,24.73,0,0,1-7.5-4.74,28,28,0,0,1-7.14-11.38c-1.49-4-2.82-8.15-3.92-12.31-.12-.44-.2-.89-.3-1.31.29-.28.57-.18.86-.11a82,82,0,0,1,11,3.43A22.83,22.83,0,0,1,23.69,160.86Z"/><path class="cls-16" d="M27.73,139.92a12.65,12.65,0,0,1-1.66-1.52,4.42,4.42,0,0,0-.65-.59c-.29-.17-.67-.62-1-.19s.26.58.51.8l2.5,2.27a4.47,4.47,0,0,1-.65,2,49.24,49.24,0,0,0-2.58,9.47A12.94,12.94,0,0,1,23.7,155a70.69,70.69,0,0,1-3-10.35c-.63-2.89-1.19-5.8-1.7-8.72-.35-2-.56-4-.85-5.95-.22-1.57-.47-3.13-.7-4.7a4,4,0,0,1,0-1.45A16,16,0,0,1,20.8,125c3.09,1.2,6.07,2.64,9.07,4,1.09.51,2.11,1.18,3.16,1.78a2.31,2.31,0,0,1-.5,1.13,45.24,45.24,0,0,0-4.13,7.1C28.25,139.4,28.13,139.77,27.73,139.92Z"/><path class="cls-41" d="M75.07,51.21q0,1.54,0,3.07c-1.63-.73-2.49-2.1-3.28-3.88A11.82,11.82,0,0,0,75.07,51.21Z"/><path class="cls-42" d="M276.8,51l-.37-.06a.28.28,0,0,1,.41-.14C276.93,50.81,276.89,50.91,276.8,51Z"/><path class="cls-16" d="M42.63,40.15c.11,1.77-.89,3-2.16,4.14a7.46,7.46,0,0,1-2.22,1.4.64.64,0,0,0-.42,1c.3.78.59,1.57.88,2.35.07.19.17.41,0,.58s-.39.06-.59,0A7.54,7.54,0,0,1,35,47.75a1.51,1.51,0,0,0-1.54-.45,20,20,0,0,1-12.83-1.65A8.48,8.48,0,0,1,17,42.33a4.54,4.54,0,0,1,.73-5.45,12.36,12.36,0,0,1,6.48-3.62,21.07,21.07,0,0,1,12.34.49,12.22,12.22,0,0,1,4,2.25A5,5,0,0,1,42.63,40.15Z"/><path class="cls-16" d="M307.71,40.55a16.83,16.83,0,0,1,.89-2.67c.29-1,.29-1-.61-1.58a13.49,13.49,0,0,1-2.42-1.79c-2.35-2.34-2.17-5.39.27-7.6a13.72,13.72,0,0,1,6.37-3.09,19,19,0,0,1,5.35-.56c3.37.21,6.65.79,9.53,2.72a8.31,8.31,0,0,1,2.09,2c1.78,2.42,1.23,5-1.14,7a14.9,14.9,0,0,1-7.68,3.17,21.14,21.14,0,0,1-7.61-.19,1.17,1.17,0,0,0-1.18.51A9,9,0,0,1,307.71,40.55Z"/><path class="cls-16" d="M4,136.17a1.82,1.82,0,0,1-1.72,1.66A1.85,1.85,0,0,1,.76,136a1.61,1.61,0,0,1,1.68-1.64A1.88,1.88,0,0,1,4,136.17Z"/><path class="cls-43" d="M317.86,99.93a1.85,1.85,0,0,1,1.69,1.85,2,2,0,0,1-1.71,1.59,1.93,1.93,0,0,1-1.76-1.81A1.85,1.85,0,0,1,317.86,99.93Z"/><path class="cls-17" d="M92.25,94.93q0-6.55,0-13.1c0-.34,0-.67,0-1s.18-.63.6-.63h17.88c.48,0,.67.25.66.71,0,.25,0,.5,0,.76q0,13.41,0,26.82c0,.17,0,.34,0,.5,0,.9,0,.93-.92.95-1,0-2.1,0-3.15,0H93.86c-.29,0-.59,0-.88,0-.55,0-.75-.26-.73-.77,0-.29,0-.59,0-.88Q92.25,101.61,92.25,94.93Z"/><path class="cls-44" d="M164.33,73.68a14.9,14.9,0,0,1-5.87-4.4,18.13,18.13,0,0,1-4.4-14.1,17.8,17.8,0,0,1,4.28-10,18.57,18.57,0,0,1,19.91-5.57,1.37,1.37,0,0,1,.07,1.32c-1.69,5.07-3.3,10.17-5.1,15.2a3.67,3.67,0,0,0-.25.7,3.13,3.13,0,0,1-.09.36c-2.51,5.27-5.21,10.45-7.8,15.68C164.9,73.19,164.74,73.55,164.33,73.68Z"/><path class="cls-5" d="M164.33,73.68,172.67,57a2.09,2.09,0,0,1,1.19-.65q7.44-2,14.89-4a1.59,1.59,0,0,1,1.55.12,18.43,18.43,0,0,1-8.59,20.7A18.12,18.12,0,0,1,171,75.59,14.54,14.54,0,0,1,164.33,73.68Z"/><path class="cls-17" d="M126.91,109.94h-9.57c-1.13,0-1.15,0-1.15-1.1q0-6.48,0-13c0-1,0-1.05,1.07-1.06h19.26c1.06,0,1.08,0,1.08,1q0,6.55,0,13.09c0,1,0,1-1,1C133.37,109.94,130.14,109.94,126.91,109.94Z"/><path class="cls-17" d="M172.53,16.18h20.65c.29,0,.59,0,.88,0,.52,0,.77.19.77.73,0,1.26,0,2.52,0,3.78,0,.62-.28.82-.85.78-.25,0-.5,0-.76,0H151.55c-1.67,0-1.58.13-1.58-1.55,0-.88,0-1.76,0-2.64,0-1.06,0-1.07,1-1.09h21.53Z"/><path class="cls-17" d="M172.41,28.53H115.72c-1.24,0-1.48-.3-1.28-1.48.06-.35.23-.52.57-.53H229.28c1,0,1.42.69,1,1.66a.48.48,0,0,1-.47.34c-.42,0-.84,0-1.26,0Z"/><path class="cls-5" d="M126.9,80.16h9.57c1.1,0,1.11,0,1.12,1.12q0,3.71,0,7.43c0,1.32,0,1.32-1.29,1.32H118.54c-.55,0-1.09,0-1.64,0s-.75-.21-.74-.74c0-1.26,0-2.52,0-3.78s0-2.69,0-4,0-1.33,1.29-1.33Z"/><path class="cls-17" d="M190.3,52.46a8.52,8.52,0,0,0-3,.65c-4.87,1.27-9.73,2.58-14.6,3.88a.55.55,0,0,1,0-.23c.14-.15.1-.37.19-.54q2.49-7.47,5-14.94a4.4,4.4,0,0,0,.41-1.69,18.06,18.06,0,0,1,7,4.21A17.8,17.8,0,0,1,190.3,52.46Z"/><path class="cls-5" d="M230.18,87H209c-1.11,0-1.14,0-1.11-1.12,0-.89,0-.91.92-.94h42.69c1,0,1.06,0,1,1.06s0,1-1.23,1Z"/><path class="cls-17" d="M227.61,105.65H209a1.11,1.11,0,0,1-1-1.71.52.52,0,0,1,.51-.29h37.65c1,0,1.42.66,1.06,1.65a.48.48,0,0,1-.46.35c-.34,0-.67,0-1,0Z"/><path class="cls-40" d="M227.2,89.79h18.12a1.12,1.12,0,0,1,1.11,1.7.49.49,0,0,1-.49.3H209.45c-.25,0-.51,0-.75,0-.62.06-.78-.25-.79-.82,0-1.14,0-1.19,1.17-1.19Z"/><path class="cls-17" d="M224.83,110.68H209.6c-.29,0-.59,0-.88,0-.62,0-.82-.28-.78-.84,0-.25,0-.5,0-.76,0-.48.25-.67.71-.66h32c1.08,0,1.1,0,1.1,1.15s0,1.1-1.15,1.1Z"/><path class="cls-12" d="M172.5,110.2H153.1a3.8,3.8,0,0,1-1.84-.32,2.69,2.69,0,0,1-1.58-2.52c0-6.76,0-13.52,0-20.28a2.85,2.85,0,0,1,2.6-2.89,5.17,5.17,0,0,1,.63,0h38.92a3.11,3.11,0,0,1,3.31,2.17,3,3,0,0,1,.16,1.11q0,9.7,0,19.4a3.14,3.14,0,0,1-3.41,3.33Z"/><path class="cls-12" d="M220,94.57h11c.36,0,.87-.17,1.05.2a2.76,2.76,0,0,1,.05,1.73.37.37,0,0,1-.38.26c-.29,0-.59,0-.88,0H209.27c-.21,0-.42,0-.63,0-.54,0-.77-.23-.73-.75,0-.08,0-.17,0-.25,0-1.19,0-1.21,1.15-1.21Z"/><path class="cls-45" d="M114.84,72.12H102.39c-.35,0-.5-.21-.55-.55-.18-1.16,0-1.45,1.17-1.45h23.9c1,0,1.43.62,1.08,1.63a.48.48,0,0,1-.45.36c-.33,0-.67,0-1,0Z"/><path class="cls-16" d="M186,156.29a12.37,12.37,0,0,1-2.76,4.14,12.74,12.74,0,0,1-6.09,3.34,12.42,12.42,0,0,1-10.28-2,11.47,11.47,0,0,1-3.75-4.17c-.15-.3-.23-.64-.55-.82a2.7,2.7,0,0,1-.92-1.59c-.46-2.06-.83-4.14-.05-6.21.5,0,1,0,1.51,0h22.15c.5,0,1,0,1.51,0C187.71,150.87,187.29,154.86,186,156.29Z"/><path class="cls-46" d="M186,156.29a18,18,0,0,0,1-4.82c.1-.82-.34-1.62-.24-2.45h10.84a1.21,1.21,0,0,1,.26.94c0,2,0,4,0,6a1.31,1.31,0,0,1-.22.83l-.08,0c-3.45,0-6.9,0-10.35,0C186.75,156.8,186.15,157,186,156.29Z"/><path class="cls-46" d="M161.58,149a25.39,25.39,0,0,0,.22,5.45c.18.82.62,1.53.76,2.35H151l0-.26a1.37,1.37,0,0,1-.34-1q0-2.75,0-5.49a1.31,1.31,0,0,1,.36-1Z"/><path class="cls-10" d="M84,151.26c-.1-.85.42-1.65.19-2.51a6.57,6.57,0,0,1,4.53-.95c1.81.21,3.59.6,5.39.9a5.43,5.43,0,0,0,2.22-.18l0,.42a21.05,21.05,0,0,0-.75,3.31c0,.2,0,.41-.22.55a1.36,1.36,0,0,1-1.07.22c-3.09-.44-6.18-.86-9.26-1.34A1.52,1.52,0,0,1,84,151.26Z"/><path class="cls-47" d="M151,149q0,3.78,0,7.56c-.31.14-.67.36-.71-.23s0-1.17,0-1.75c0-1.62,0-3.25,0-4.87C150.23,149.25,150.2,148.69,151,149Z"/><path class="cls-48" d="M197.63,156.8q0-3.9,0-7.79a.24.24,0,0,1,.4.06,1.53,1.53,0,0,1,.11.86c0,2,0,3.93,0,5.89C198.1,156.2,198.25,156.7,197.63,156.8Z"/><path class="cls-4" d="M319.59,127.83a1.1,1.1,0,0,0,.3.92,58.28,58.28,0,0,1,4.07,4.57,4.92,4.92,0,0,0,.67.55,72.7,72.7,0,0,1-5.47,8.09,10.72,10.72,0,0,1-1.88,2.33C315.91,141,316.28,133.41,319.59,127.83Z"/><path class="cls-5" d="M219.54,55q0,7.42,0,14.84c0,1,0,1.05-1,1.07s-2,0-3,0c-.61,0-.84-.25-.78-.83,0-.08,0-.17,0-.25q0-7.42,0-14.84A6.54,6.54,0,0,1,219.54,55Z"/><path class="cls-17" d="M245.22,59h-4.76c0-3.77,0-7.55,0-11.32,0-1,0-1,1.07-1s1.93,0,2.89,0c.58,0,.86.2.83.8s0,1,0,1.51Q245.23,54,245.22,59Z"/><path class="cls-17" d="M223.3,58.76q0-5.27,0-10.55c0-.33,0-.67,0-1a.5.5,0,0,1,.56-.53h3.64a.5.5,0,0,1,.56.53c0,.33,0,.67,0,1q0,5.27,0,10.55A6.18,6.18,0,0,1,223.3,58.76Z"/><path class="cls-5" d="M223.3,58.76h4.8q0,3.52,0,7c-.3.25-1,.15-.72.9.06.15-.13.28-.29.36-.59.29,0,.75-.1,1s-.54.46-.42.94c.2.85.53,1.56,1.51,1.7-.26.29-.62.21-.94.21h-2.51c-1.45,0-1.39.09-1.39-1.34q0-3.7,0-7.4C223.29,61,223.3,59.89,223.3,58.76Z"/><path class="cls-17" d="M219.54,55h-4.8c0-2.38,0-4.76,0-7.15,0-1.15,0-1.15,1.21-1.16h2.38c1.19,0,1.2,0,1.21,1.16C219.54,50.21,219.54,52.6,219.54,55Z"/><path class="cls-17" d="M236.68,52.21h-4.8c0-1.5,0-3,0-4.51,0-1,0-1,1-1s1.92,0,2.88,0,.95,0,1,1C236.68,49.2,236.67,50.7,236.68,52.21Z"/><path class="cls-10" d="M71.32,155.3c-3.46,0-6.91.4-10.37.26-.54,0-1.1.07-1.44-.5-.62-.68-.21-1.6-.55-2.34a4.67,4.67,0,0,1,.23-2.92c4.24-.76,8.21.47,12.16,1.73Z"/><path class="cls-49" d="M59.19,149.79l.07,3c.1.27.21.55-.07.77a.31.31,0,0,1-.44-.1c-.58-.91-1.53-1.63-1.51-2.85A4.72,4.72,0,0,1,59.19,149.79Z"/><path class="cls-50" d="M57.24,150.57c.49,1,1.26,1.8,1.66,2.8.48-.11.25-.44.35-.62.47.73.05,1.55.25,2.3l0,.51L56.69,151A.79.79,0,0,1,57.24,150.57Z"/><path class="cls-5" d="M98.22,49a14.89,14.89,0,0,1-2.9-.34c0-.46,0-.92,0-1.38A1.58,1.58,0,0,1,95.84,46c2.13-1.84,4.51-2.83,7.38-2.17A5.78,5.78,0,0,1,106,45.43c.48.47.94,1,1.43,1.41a3.76,3.76,0,0,0,4.23,1c1.49-.57,2.81-1.47,4.28-2.08a8.84,8.84,0,0,1,4.3-.56,3.7,3.7,0,0,1,2.1,1c.53.47,1,1,1.58,1.44a5.79,5.79,0,0,0,4.57,1.27c.23.11.84-.13.52.5a6.81,6.81,0,0,1-3.43,3.51,3.11,3.11,0,0,1-3.19-.44A9.12,9.12,0,0,1,120.7,51a4.92,4.92,0,0,0-.55-.52c-2.09-1.83-3.73-1.22-5.41.61a9.67,9.67,0,0,1-2.57,2.35c-1.75.89-3.43.45-5.07-.28a44.27,44.27,0,0,1-4.21-2.48c.06-.32.14-.65.17-1a1.63,1.63,0,0,0-1.6-1.74c-.16,0-.31.12-.41-.09-.21-.46-.53-.45-.9-.2a.22.22,0,0,1-.33,0c-.45-.48-.71-.13-1,.24S98.43,48.63,98.22,49Z"/><path class="cls-51" d="M42.87,107.07l1.49-5.1c.34-1.16.68-2.32,1-3.48a4.09,4.09,0,0,1,.22-.58.28.28,0,0,1,.42-.12c.16.08.27.18.19.39s0,.16-.07.24l-2.47,8.4a3.27,3.27,0,0,1-.1.36c-.1.23-.21.5-.53.38S42.85,107.22,42.87,107.07Z"/><path class="cls-52" d="M53.75,106.41l.68-.1c-.47,2.3-1.26,4.51-1.92,6.75-.07.24-.08.67-.53.49s-.21-.47-.12-.75Q52.82,109.6,53.75,106.41Z"/><path class="cls-53" d="M57.3,106.48s.06-.16.11-.32c.36-1.24.71-2.49,1.07-3.73a3.35,3.35,0,0,1,.24-.58.34.34,0,0,1,.42-.18c.23.06.2.22.16.39s0,.17,0,.25L58,106.74c-.06.22-.17.39-.44.27S57.24,106.83,57.3,106.48Z"/><path class="cls-54" d="M49.67,108.24a.83.83,0,0,0,.68,0c-.38,1.31-.76,2.63-1.14,3.94-.07.23-.11.54-.47.42s-.22-.4-.15-.63Z"/><path class="cls-55" d="M54.95,104.46c.05-1.32.41-2.59.57-3.89.29.07.75,0,.55.54A21.8,21.8,0,0,1,54.95,104.46Z"/><path class="cls-13" d="M228.61,168.38a2.21,2.21,0,0,1-2.4,2.29,2.33,2.33,0,0,1-2.39-2.24,2.63,2.63,0,0,1,2.37-2.5C227.81,166,228.66,166.94,228.61,168.38Z"/><path class="cls-13" d="M131.07,163a2.08,2.08,0,0,1-2.32,2.34,2.13,2.13,0,0,1-2.24-2.43,2.4,2.4,0,0,1,2.28-2.34A2.33,2.33,0,0,1,131.07,163Z"/><path class="cls-13" d="M41.33,155.55c-.09.65-.53.55-.94.4-1.11-.38-2.22-.75-3.3-1.19-3.49-1.39-7-2.79-10.34-4.5-.33-.17-1.05-.24-.82-.72s.8,0,1.16.15c4.21,1.94,8.46,3.8,12.84,5.33a5.24,5.24,0,0,0,1.4.52Z"/><path class="cls-7" d="M85.2,174.43a.9.9,0,0,0-.76-.22,26.91,26.91,0,0,0-3.61-1c-.51-.12-.7-.35-.61-.87q1.14-6.53,2.27-13.06a2.79,2.79,0,0,1,.17-.47,1.47,1.47,0,0,1,1.33-.12c2.78.63,5.57,1.26,8.35,1.9.52.12,1.1.16,1.38.75-.24,1.22-.51,2.43-.72,3.65-.06.33-.22.39-.48.42-1.18.89-2.79.81-4.07,1.75.49.46.91.13,1.3,0a11,11,0,0,1,3-.8c.44-.08.54.28.71.55.9,1.39,1.61,2.89,2.58,4.23.59.23.47.86.73,1.28l3.33,5.75-5.27-1.28c-.34-.12-.78.2-1-.26C91,175.81,88.11,175,85.2,174.43Z"/><path class="cls-9" d="M93.71,161.33a33.71,33.71,0,0,0-4.47-1.1c-2.19-.5-4.35-1.1-6.58-1.42.16-1.94.6-3.83.92-5.74a4.22,4.22,0,0,1,.38-1.81c1.67,0,3.29.44,4.94.62,1.44.16,2.87.48,4.31.62a13.52,13.52,0,0,0,2.1.3c-.2,2.1-.8,4.14-1.14,6.22C94,159.79,93.86,160.56,93.71,161.33Z"/><path class="cls-13" d="M96.78,172.45a3.73,3.73,0,0,1-.73-1.28,13.52,13.52,0,0,0,1.58-3,112.81,112.81,0,0,1,5.3-10.12c1-1.86,2.15-3.69,3.29-5.49.07-.11.11-.22.17-.33s.3-.4.6-.25.2.42.07.63c-.48.78-1,1.55-1.47,2.34-1.53,2.55-3.06,5.1-4.43,7.73-.11.22-.2.45-.34.76a1.83,1.83,0,0,0,1.1-.36,30.28,30.28,0,0,1,7.3-2.63c.51-.12.51-.12,1.35.14a1.26,1.26,0,0,1-.94.53,26.94,26.94,0,0,0-6.63,2.26c-.74.38-1.47.79-2.21,1.19A3,3,0,0,0,99.48,166c-.78,1.72-1.74,3.35-2.43,5.11A3.44,3.44,0,0,0,96.78,172.45Z"/><path class="cls-13" d="M93.8,176.67c.36,0,.74,0,1,.26a6.36,6.36,0,0,0-1.3,2.67c-.69,1.79-1.28,3.61-1.91,5.42-.07.2-.12.4-.19.59s-.18.31-.36.27a.39.39,0,0,1-.3-.48,4.48,4.48,0,0,1,.21-.72c.77-2.33,1.6-4.65,2.52-6.93A3.33,3.33,0,0,0,93.8,176.67Z"/><path class="cls-56" d="M92.76,166.39a36.73,36.73,0,0,1-4.09,1.48c-.38.15-.52-.13-.62-.42s-.21-.62.19-.74c1.44-.4,2.75-1.2,4.28-1.31A1.7,1.7,0,0,1,92.76,166.39Z"/><path class="cls-13" d="M26,174.2c-1.08-1.43-2.28-2.77-3.45-4.12-2.64-3-5.63-5.74-8.42-8.63-.5-.52-1.14-.85-1.62-1.38-.14-.15-.32-.3-.15-.53a.37.37,0,0,1,.55,0,7.71,7.71,0,0,1,1,.75c2.82,2.81,5.68,5.58,8.43,8.47.91,1,1.8,2,2.66,3q2.59,3.28,5.17,6.57c.31.39.59.81.86,1.23.14.21.25.47-.06.64s-.36-.08-.49-.25L27.49,176A13,13,0,0,0,26,174.2Z"/><path class="cls-5" d="M29.5,38.82H23c-.29,0-.59,0-.88,0a.34.34,0,0,1-.35-.41c0-.2.17-.28.35-.29l.63,0H36.17a6.73,6.73,0,0,1,.75,0,.34.34,0,0,1,0,.68c-.29,0-.59,0-.88,0Z"/><path class="cls-5" d="M21.73,41.5c.12-.37.29-.4.45-.4l10.71,0c.12,0,.23.07.26.35a8.46,8.46,0,0,1-2.74.15c-1,0-1.93,0-2.9,0s-1.93,0-2.9,0A11.14,11.14,0,0,1,21.73,41.5Z"/><path class="cls-5" d="M317.2,28.74h6.42l.88,0a.32.32,0,0,1,.34.3.35.35,0,0,1-.36.41c-.25,0-.5,0-.75,0H310.5a8.15,8.15,0,0,1-.88,0,.32.32,0,0,1-.29-.35.32.32,0,0,1,.31-.33c.29,0,.59,0,.88,0Z"/><path class="cls-5" d="M315,32.52h-4.53a6,6,0,0,1-.88,0,.29.29,0,0,1-.24-.37c0-.11.12-.25.21-.27a3.59,3.59,0,0,1,.75-.06c3.19,0,6.38,0,9.57,0,.33,0,.89-.19.91.35s-.54.39-.88.39C318.27,32.53,316.63,32.52,315,32.52Z"/><path class="cls-5" d="M172.86,56.23a.49.49,0,0,1-.19.54A.53.53,0,0,1,172.86,56.23Z"/><path class="cls-16" d="M172.46,109.65h-19a3.41,3.41,0,0,1-1.94-.4,2.6,2.6,0,0,1-1.31-2.29c0-6.51,0-13,0-19.53a2.61,2.61,0,0,1,2.61-2.67c.25,0,.5,0,.76,0h37.67a4.72,4.72,0,0,1,2,.32A2.24,2.24,0,0,1,194.59,87c0,.25,0,.5,0,.76q0,9.45,0,18.9c0,2.05-.93,3-3,3Z"/><path class="cls-4" d="M227.85,168.44a1.66,1.66,0,0,1-1.56,1.65,1.72,1.72,0,1,1,0-3.44A1.62,1.62,0,0,1,227.85,168.44Z"/><path class="cls-4" d="M128.78,161.35a1.93,1.93,0,0,1,1.76,1.76,1.62,1.62,0,0,1-1.78,1.52,1.6,1.6,0,0,1-1.7-1.61A1.93,1.93,0,0,1,128.78,161.35Z"/><path class="cls-57" d="M160.18,103.45c-1.31-1-2-2.33-3.26-3.22-.42.12-.45.55-.61.85-.57,1.07-1.1,2.17-1.64,3.26-.1.2-.28.36-.5.25s-.19-.35-.1-.55c.77-1.54,1.53-3.08,2.31-4.61.29-.58.62-.27.85,0a34.78,34.78,0,0,0,2.75,2.86L163.9,94a12.28,12.28,0,0,1,1.8,1.5c1,1,2,1.89,3,2.87.43.44.71.41,1.12,0,1.49-1.53,3-3,4.53-4.55.92-.93.8-.76,1.65-.23,1.35.84,2.76,1.61,4.07,2.5.65.44,1,.3,1.46-.21,1.92-2,3.88-4.07,5.82-6.09.2-.21.41-.42.63-.61a.28.28,0,0,1,.44,0c.14.16.07.31,0,.44-.57.62-1.12,1.25-1.7,1.85-1.75,1.81-3.54,3.58-5.27,5.41a.69.69,0,0,1-1,.15c-1.38-.87-2.79-1.71-4.18-2.56-1-.59-1-.59-1.82.25L170.07,99c-.82.82-.82.8-1.66,0-1.36-1.3-2.74-2.58-4.26-4Z"/><path class="cls-58" d="M176.63,106.11H175c-.42,0-.61-.21-.6-.62,0-.13,0-.25,0-.38,0-1.52,0-1.52,1.47-1.52.8,0,1.59,0,2.39,0,.54,0,.77.22.73.75a1,1,0,0,0,0,.13c.08,1.65.08,1.65-1.59,1.65h-.75Z"/><path class="cls-44" d="M186,104.41c1,0,1.93,0,2.89,0,.3,0,.81-.16.81.3s-.56.36-.89.36c-1.22,0-2.43,0-3.65,0-.84,0-1.68,0-2.52,0-.27,0-.67.09-.7-.32s.39-.34.65-.35C183.78,104.4,184.91,104.41,186,104.41Z"/></g></g></svg>