<svg xmlns="http://www.w3.org/2000/svg" viewBox="0 0 346 330.11"><defs><style>.cls-1{fill:#161616;fill-opacity:0.47;}.cls-2,.cls-28,.cls-30{fill:#0d2c34;}.cls-3{fill:#325863;}.cls-4{fill:#e49b31;}.cls-5{fill:#f9930d;}.cls-6{fill:#f59ca2;}.cls-7{fill:#23444c;}.cls-8{fill:#fbc343;}.cls-31,.cls-33,.cls-35,.cls-9{fill:#fff;}.cls-10{fill:#cecece;}.cls-11{fill:#f3898e;}.cls-12{fill:#d37300;}.cls-13{fill:#fefefe;}.cls-14{fill:#ebedec;}.cls-15{fill:#e5e6e5;}.cls-16{fill:#000002;}.cls-17{fill:#444749;}.cls-18{fill:#f8f8f9;}.cls-19{fill:#c2c5c5;}.cls-20{fill:#c3696a;}.cls-21{fill:#e08712;}.cls-22{fill:#6e878e;}.cls-23{fill:#b2b4b5;}.cls-24{fill:#b7baba;}.cls-25{fill:#e2e4e4;}.cls-26{fill:#b0b3b3;}.cls-27{fill:#d6d8d9;}.cls-28{font-size:23.05px;}.cls-28,.cls-30{font-family:Impact, Impact;}.cls-29{letter-spacing:-0.02em;}.cls-30{font-size:26.61px;}.cls-31,.cls-32,.cls-33,.cls-34,.cls-35{stroke:#e23b50;stroke-miterlimit:10;}.cls-31,.cls-32{stroke-width:4px;}.cls-32,.cls-34{fill:none;}.cls-33,.cls-34{stroke-width:3px;}.cls-35{stroke-width:5px;}</style></defs><title>Illus-2</title><g id="Layer_2" data-name="Layer 2"><g id="Layer_1-2" data-name="Layer 1"><path class="cls-1" d="M210.3,330.11Q184.93,315.55,159.55,301q-20.24-11.59-40.49-23.15Q99,266.34,79,254.78,66.1,247.39,53.24,240c-.94-.54-1.82-1.17-2.74-1.75-.59-.18-1-.85-1.69-.72q-12.51-7.18-25-14.34c-2-1.13-3.78-2.62-3.76-4.93s1.49-4,3.74-5.27c7.14-4,14.11-8.24,21.18-12.33a9.28,9.28,0,0,1,4-1.65c1.59-1,2.46.39,3.43,1.15q32.28,25.23,64.54,50.48,36.83,28.83,73.69,57.62c4.86,3.8,9.73,7.57,14.55,11.41a14.78,14.78,0,0,0,8.89,3.62,22.91,22.91,0,0,0,9.16-3.21c33.36-19.39,66.67-38.86,100.14-58.07,1.12-.64,2.15-1.67,3.65-1.16,1.51,2.51,1.06,4.42-1.57,5.93q-26.89,15.47-53.74,31Q246.53,312.4,221.45,327c-2,1.14-4,2.06-6.07,3.08Z"/><path class="cls-2" d="M213.9,324.17c-5.38.26-8.85-3.42-12.58-6.33C184.9,305,168.63,292,152.22,279.2s-32.71-25.32-49-38Q79.52,222.79,56,204.27c-2.3-1.81-4.26-4.07-7-5.24-3.86-3.79-8.3-6.86-12.56-10.15C30,184,23.82,178.93,17.49,174c-1.85-1.43-2.38-3.6-3.56-5.4V162.1c1.59-1,.77-2.78,1.25-4.15,1.63-4.59,5.25-6.76,9-9,15.29-8.9,30.53-17.89,45.83-26.77q20.21-11.73,40.53-23.27c5.58-3.17,10.74-7.12,16.94-9.14,2.05-.67,4.06-1,6.07.09.41.86-.11,1.37-.68,1.87-7.05.06-12.41,4.29-18.07,7.6-26.92,15.74-54,31.24-80.9,47-3,1.77-6.15,3.38-9,5.38-4.82,3.35-4.9,6.74-.25,10.4C45,178.13,65.41,194,85.79,209.94q60.7,47.47,121.33,95c2.78,2.19,6.25,3,8.84,5.41C216,315.09,216,319.79,213.9,324.17Z"/><path class="cls-3" d="M27.48,59.66c-1.9-7.6-2.22-15.18.48-22.67,4.8-13.32,14.46-22.05,27.15-27.32A116.61,116.61,0,0,1,96,.74c.52,0,.93-.16,1.07-.72l11.62,0c2.75,1.67,5.91.64,8.88,1.28a67.85,67.85,0,0,1,14.32,4.47A1.71,1.71,0,0,1,132.11,8c-1.18.84-2.34.29-3.44-.14C114.11,2.07,99.15,2.46,84.09,5.08c-10,1.75-20,3.87-29.17,8.37C42.44,19.56,33.16,28.56,29.85,42.62a27,27,0,0,0,.05,12.56c.41,1.74,1.23,3.45.61,5.31C29.21,61.29,28.18,61.09,27.48,59.66Z"/><path class="cls-4" d="M13.74,77.89c6.43-2.7,12.82-5.47,19-8.79a4.83,4.83,0,0,1,2-1.6c2.47-1.26,5.09-2.18,7.57-3.42,1.05-.53,2.42-1.23,3.27,0,.73,1.09-.45,2-1.14,2.75a52.06,52.06,0,0,0-4.59,5.09A5.22,5.22,0,0,1,37,74.1c-2.6,2.51-5.24,5-7.78,7.54a3.35,3.35,0,0,1-3.85,1c-3.84-1.21-7.75-2.21-11.64-3.29Z"/><path class="cls-3" d="M338.49,186.81c-2.22.1-1.74-2-2-3s1.25-.45,2-.64Z"/><path class="cls-3" d="M338.52,201.33c-2.06-1.43-2.06-2.91,0-4.36Z"/><path class="cls-3" d="M338.51,194.07c-2.37-1.45-2.1-2.9,0-4.36Z"/><path class="cls-3" d="M215.3,309.8c-3.79.28-6.27-2.29-8.88-4.3-13.59-10.49-27.08-21.1-40.6-31.69-15-11.78-30-23.61-45-35.36Q91,215.19,61.11,192c-12.68-9.9-25.27-19.92-38-29.76-3.76-2.91-3.91-8.24.82-11,7-4.07,13.86-8.22,20.83-12.28Q65.2,127,85.66,115.21c13-7.54,26.06-15,39-22.64,2.63-1.54,5.39-1,8.11-1.19,1.89-.61,3.24.49,4.6,1.5,3.69,2.73,7.27,5.61,10.89,8.43,1,.79,1.91,2,3.47,1.6,3.64-1.08,7.27-2.18,10.92-3.24a17.4,17.4,0,0,1,2-.35c1.84,2.19,1.78,5,2.08,7.54,1.86,16.1-1.69,31.13-9.23,45.33-2.76,1.18-4.82-.79-7.07-1.69s-4.58-2.21-7.2-2.22c-1.07,0-2.31-.13-2.91,1s.49,1.7,1.08,2.42,1.57,1.3.75,2.44c-4.78,1.48-10,1.28-14.51,3.78-1.21.67-2.35,1.76-4,1.29-1-1-.46-2.06-.14-3,4.87-14.37,9.29-28.92,16-42.6a17.13,17.13,0,0,1,3.43-5.05c.89-.79,1.65-1.79,2.91-1.87a21.83,21.83,0,0,1-5-3.4A13.21,13.21,0,0,0,125.49,102c-5.15,2.89-10.29,5.81-15.34,8.88-2.56,1.47-5.09,3-7.71,4.37-1.82.95-2.69,2.19-2.46,4.21a3,3,0,0,1-.4.95c-2.42,2.44-5.6,3.71-8.49,5.42q-10.1,6-20.3,11.83c-1.36.78-2.78,1.77-4.39,1.3-3-.88-5.36.42-7.8,1.82-7.52,4.32-14.95,8.81-22.52,13-2.19,1.22-4.17,2.57-3.66,5.56.88,2.31,3,3.39,4.8,4.77C52.4,176,67.5,187.95,82.75,199.71c17.06,13.42,34.11,26.85,51.32,40.07,6.54,5.37,13.3,10.45,19.94,15.69,7.47,5.9,15,11.71,22.48,17.6q15.34,12,30.66,24c7.19,5.7,9.52,5.76,17.55,1.06q18-10.53,36-20.93c17.34-9.92,34.51-20.13,51.84-30.06a12.13,12.13,0,0,0,3.43-2.6c1.44-2.82-.17-4.54-2.19-6.11q-21.12-16.48-42.2-33-18-14-35.91-28.12a10.12,10.12,0,0,1-3.11-3,7.46,7.46,0,0,1,0-5c2-1.65,3.12.45,4.23,1.32q19.75,15.35,39.44,30.79,23.56,18.4,47.12,36.81c5.92,4.61,5.75,8.47-.7,12.22Q289.38,269.89,256,289.25c-10,5.84-20.12,11.58-30.11,17.49a55.7,55.7,0,0,1-6.11,3.19C218.27,310.57,216.75,311,215.3,309.8Z"/><path class="cls-5" d="M156.86,152.72c6.16-13.18,10.25-26.84,9.37-41.58-.23-3.8-1-7.57-1.49-11.36,3.73-1.71,7.51-3.28,11.66-3.65,1.11,1,.94,2.41,1,3.71a32.91,32.91,0,0,0,2.1,10.55c.76,2.12,1.09,4.46,4.6,2.88,1.91-.86,3.47,1.08,4.48,2.83,1.66,2.88,2.09,6.12,2.58,9.32.22,1.42.42,2.84.76,4.25.93,7.36-.2,14.7-.69,22-.56,8.29-.58,16.6-.93,24.88-.4,9.49-.85,19-.93,28.5,0,4-.88,7.89-.83,11.89s-1.53,5.34-5.7,4.95a61.89,61.89,0,0,1-19.79-5.5c-4.61-2.09-9.24-4.21-12.93-7.84-2.88-3.21-.79-7-1.31-10.55q0-.91,0-1.81a56.13,56.13,0,0,1,1.28-7.62c3.39-1.79,4.78-4.86,5.5-8.42.25-1.24.38-3.28,1.79-3.2,1.86.11,2,2.21,2,3.75a73.71,73.71,0,0,0,.82,10.45c.13.91-.12,2.24,1.17,2.3s1.71-1.21,1.83-2.31c.37-3.25,0-6.51.2-9.76.06-1.14-.2-2.72,1.28-3,1.16-.23,1.82,1.06,2.34,2,1.9,3.36,3.65,6.8,5.62,10.12.46.78.78,2,2,1.61s.94-1.55.84-2.52c-.16-1.67-1.2-3.19-.81-4.95.53-1.31,1.56-.79,2.45-.63,1.07.19,1.94.11,2.15-1.19a6,6,0,0,0-1.61-4.64,128.5,128.5,0,0,1-8.8-12.64,44.14,44.14,0,0,0-10.41-11.32C157.83,153.75,157.16,153.43,156.86,152.72Z"/><path class="cls-6" d="M178.56,79.77c-7.65-.21-11.9-6.37-9.55-13.86,0-3.43,2.51-5.49,6.11-5a9.64,9.64,0,0,1,6.4,3.72c1.21,1.54,2.25,1.48,2.45-.63a10.21,10.21,0,0,1,2.21-5.22c1.78-2.42,1.8-5.23,1-8s.1-4.4,2.31-5.82c7.86-5.06,16.52-5.72,25.4-4.31,3.94.62,5.73,4.08,5.67,9.26-.61,5,1.27,9.66,1.84,14.49.55,4.64.92,9.33-.15,13.93-1.75,7.5-5,10.16-12.67,10.67a4.88,4.88,0,0,0-2.69.82,43.67,43.67,0,0,1-10.7-1.3c-5.66-1.34-8.85-5.48-11-9.87a4,4,0,0,1,.43,1c2,8.81,8.65,10.78,16.34,11.3,1.76.12,3.65-.38,5.22.92,1,2.87.78,6.11,2.58,8.75a34.11,34.11,0,0,1,1.39,5.59c.84,4.94-.83,6.71-5.88,6.13a38.65,38.65,0,0,1-14-4.59c-.85-.45-1.71-.87-2.52-1.39-4.55-5.43-7.69-11.4-7.22-18.76l-.17-4.39c-.18-.31-.48-.66-.43-1C181.27,80.41,180.32,79.73,178.56,79.77Z"/><path class="cls-7" d="M215.3,309.8c3.79.34,6.67-1.86,9.66-3.59,14.82-8.55,29.59-17.18,44.38-25.76q19.85-11.52,39.71-23c4.89-2.84,9.82-5.65,14.6-8.67,4.42-2.8,4.33-5.84.24-9C307.41,226.86,291,213.9,274.52,201q-17.32-13.55-34.71-27c-2.18-1.7-4.35-3.42-6.52-5.13a1.4,1.4,0,0,1-.07-2.17q17.59,13.73,35.18,27.46c11.65,9,23.38,18,35,27,8.22,6.38,16.36,12.85,24.54,19.26,3.19,2.5,3.6,10.79,1.49,15.45-.77,1.69-1.67,3.32-2.5,5q-27.29,15.95-54.59,31.88-20.16,11.71-40.44,23.2c-5.28,3-10.16,6.82-16.24,8.23a7.54,7.54,0,0,1-1.79,0Z"/><path class="cls-6" d="M283.85,65.64c1.64,2.92,5.11,3.3,7.53,5.33,6.95,5.82,7,10.59-1,15.05-3.69,1.12-7.72-1.29-10-6-.09-1,.17-2.13-1.37-2.31-1.33-.15-1.44.87-1.76,1.7.08,3.33,2.62,5.55,3.81,8.38,1.54,3.68,3.11,7.28,1.33,11.32,0,11.12.42,22.26-.08,33.35-.34,7.57-.62,15.34-4.15,22.4a5.73,5.73,0,0,1-.63.85c-4,2.29-6.94,2.06-10.6-.89-4.11-3.31-6-7.87-6.55-12.89-.7-6.05-2.12-12.13-.48-18.26.61-5.1,2.19-10,3.48-14.91a83.26,83.26,0,0,0,2.21-25.61c-.18-3.43.44-6.4,3-8.79.71-2.45,3.35-3.05,4.69-4.9,1.43-1.31,2.6-2.93,4.4-3.82C279.78,65,281.81,64.1,283.85,65.64Z"/><path class="cls-5" d="M233.22,166.7l.07,2.17q0,2.94,0,5.88c1,1.31,1,2.87,1,4.41,0,3.65,0,7.3.12,10.95A26.07,26.07,0,0,1,235,197c-.11,2.24.11,4.54-1,6.64-1.28,2.82-3.72,4.39-6.35,5.69-1.15.57-2.43,1.33-3.6-.08-1.09-3.42-1.2-7-1.52-10.53-1-3.78-.87-7.7-1.09-11.53-1.13-19.91-2.59-39.79-4.57-59.63a5.78,5.78,0,0,1,.06-1.08c.74-3,.91-6.19,1.51-9.26.45-2.28.94-4.54,3.6-5.37,1.77-.55.79-1.71.47-2.63-1.76-5-4.85-9.13-8.28-13.06-.68-.78-1.86-1.27-1.5-2.64,3.58-.2,6.85,1,10.14,2.17,3.19,1.65,5,4.43,6.35,7.63a41,41,0,0,1,3.42,16.56c-.11,5.44,1.19,10.81.76,16.26-.12,1.53.25,3.18-1,4.46C232.63,149.3,231.77,158,233.22,166.7Z"/><path class="cls-2" d="M220.6,50c-.11-.06-.28-.1-.31-.18-2.76-8.64-2.76-8.49-12.2-8.67a33.12,33.12,0,0,0-18.86,5.14c-1.69,1.07-1.75,2.22-1.27,3.79,1.28,4.1,1.31,7.89-2.44,10.92-1.06.85-.51,2.26-.45,3.39.07,1.48-.28,2.91-1.59,3.29s-1.94-1.14-2.6-2c-2.85-3.8-6.22-4.85-9.64-3A3.91,3.91,0,0,0,169,65.91c-3.52-5.33-4.42-10.78-.62-16.37a2,2,0,0,0,.28-1.85c-1.45-7.34,2.09-13.55,9.2-15.82,3.26-1,5.85-2.42,7.85-5.41,2.57-3.83,6.42-4.49,10.19-2.12,1.16.73,1.4.24,2.22-.24,4.73-2.83,9.37-1.33,11.51,3.69.32.75.44.52,1.11.49,6.64-.29,6.49-.19,8.55,5.84.63,1.83,1.68,4.65,4.73,2.44a.81.81,0,0,1,1.38.39c.38,1,.72,2.4-.42,2.94-2.43,1.14-1.85,3-1.49,4.82C224,47.27,222.41,48.68,220.6,50Z"/><path class="cls-3" d="M232.44,140.6A234.58,234.58,0,0,0,230.9,113a29.75,29.75,0,0,0-8-17.26c3.35.6,6.06,2.51,8.61,4.56a157.34,157.34,0,0,1,14.41,13.62c3.58,3.71,8.08,6.44,11.2,10.63a5.67,5.67,0,0,1-.49,3.15c-2.77,8.68-3.25,17.39-.41,26.16.29.9.68,1.82.13,2.77C247.94,151.91,240.31,146.08,232.44,140.6Z"/><path class="cls-5" d="M276.35,30.82c.17-3.51.73-7,3-9.73,4.46-5.34,9.71-5.53,15.86-2,11.07,6.29,16.48,16.76,19,28.94,1.25,5.95.89,11.6-2.43,16.81-2.5,3.92-6.94,5.3-11.5,4.09a48.38,48.38,0,0,1-7.82-3.31c-4.27-2.4-7.21-6.1-9.87-10.08a46.4,46.4,0,0,1-6.9-17.63A13.19,13.19,0,0,1,276.35,30.82Z"/><path class="cls-8" d="M276.35,30.82c-.21,9,2.57,17.14,7.33,24.68a3.91,3.91,0,0,1-2.61,1,53.73,53.73,0,0,0-19.59,7.91,1.66,1.66,0,0,1-1.12,0c-2.42-2-3-4.82-3.64-7.66a36.44,36.44,0,0,1,.07-5.8c.28-1.73,1.71-2.46,2.94-3.37C267.3,44,272,37.58,276.35,30.82Z"/><path class="cls-7" d="M256.35,156.59a38,38,0,0,1,.77-32.09l2.81-.8a1.3,1.3,0,0,1,.73,1.49,57.08,57.08,0,0,0,1.54,20.35,15.41,15.41,0,0,0,8.06,10.32c2.67,1.41,4.88-.45,7.29-.12-.51,5.42-1.67,6.52-7,6.53-1.92,0-3.83,0-5.75,0C260.63,162.44,257.67,160.75,256.35,156.59Z"/><path class="cls-3" d="M149.4,27.55c.76,5.8,1.34,11.58.05,17.42-2.06,9.37-6.68,16.94-14.62,22.56-9.84,7-21.1,10.19-32.54,13-5.07,1.26-5.08,1.26-4.32,6.28.18,1.16.58,2.29.7,3.46.19,1.84-.48,2.54-2.26,1.44a58.9,58.9,0,0,1-6.31-3.89c-4.87-3.93-10.36-4.53-16.4-4.4a75.86,75.86,0,0,1-26.92-4.06A6.58,6.58,0,0,0,45,79.28c-1-1.26-.56-2.24.57-3.11,3.21-.05,6,1.57,9.1,2.16,6.9,1.31,13.84,2.42,20.87,2,5.8-.34,11,.76,15.69,4.28a6.57,6.57,0,0,0,2.84,1.47.54.54,0,0,0,.38-.59c-.74-6.43-.62-6.45,5.73-7.91,10.62-2.45,21.11-5.35,30.47-11.23,12.58-7.91,18.54-21.49,15.87-36.15-.21-1.18-.66-2.35-.11-3.55C147.7,25.94,148.73,26.13,149.4,27.55Z"/><path class="cls-8" d="M181.56,87.7a46.15,46.15,0,0,0,7.23,18.15c1.81,1.14,2.2,3,2.6,4.93,1.08,5,.64,10,.59,15.05a3,3,0,0,1-1.08,2.56c-1.13-2.18-.55-4.69-1.36-6.94-.53-1.45-.77-3-1.39-4.43-2-4.55-3.5-4.83-7-1.36a34.05,34.05,0,0,1-4.72-20C177.42,92.56,179.65,90.24,181.56,87.7Z"/><path class="cls-4" d="M261.27,64.3c.18-.43.24-1.08.57-1.25,6.85-3.75,13.76-7.37,21.85-7.55,2.23,4,6,6.62,8.84,10.08-2.89,1.05-5.8-1.72-8.68.05-2.29-.23-4.44.57-6.66.84-1.68,1.4-3.81,1.84-5.75,2.7a5.53,5.53,0,0,1-1.1.27C264.65,69.63,262.33,68.31,261.27,64.3Z"/><path class="cls-8" d="M212.77,93.52c5.77,5.37,10.08,11.6,12,20.06-3.08-1.74-4.39-.76-4.88,1.75q-1,5-2,10.1c-1.41-1.26-1.24-3.08-1.46-4.67a49.26,49.26,0,0,0-7.36-20c-2.63-2.43-2.21-5.66-2.27-8.75a1,1,0,0,1,.12-1.49Z"/><path class="cls-4" d="M140.74,12.23c2.75-1.84,4.09-5,6.54-7.11a3.14,3.14,0,0,1,3.45-.82c4.06,1.31,8.15,2.57,13,4.09-6.13,3.75-12.69,5.31-18.11,9A5.37,5.37,0,0,1,143,19.07c-3.13,1.28-6,3.12-9.25,4.14-.81.25-1.75.71-2.39,0-.81-.87-.19-1.87.38-2.62,2-2.62,4.48-4.72,6.74-7.07A4,4,0,0,1,140.74,12.23Z"/><path class="cls-9" d="M313.77,150.45a14.85,14.85,0,0,0-2.15.2c-5.5,1.3-5.59,1.36-8.1-3.93-3.68-7.76-8.57-14.9-11.66-23,1.8-.5,2.58,1,3.54,1.93q9.65,9.48,19.19,19.08C317.65,147.87,317.56,148.24,313.77,150.45Z"/><path class="cls-9" d="M294.08,123q15.53,7.38,31.06,14.75c2.37,1.12,4.76,2.2,7.15,3.27.65.29,1.46.49,1.3,1.38-.06.33-.65.71-1.07.82-3.1.8-6.21,1.53-9.32,2.29-1.12.45-1.81-.35-2.56-.92-8.07-6.15-16.27-12.13-24.34-18.28C295.23,125.46,293.61,124.89,294.08,123Z"/><path class="cls-10" d="M294.08,123c3.74,4.26,8.78,6.9,13.12,10.43,5.18,4.21,10.66,8.07,16,12.08-1.57,2.94-2.9,6-5.09,8.59a3.37,3.37,0,0,1-.48-3.72c-1.06.38-2.11,1.05-3.27.26a2.48,2.48,0,0,1-.6-.16c3.27-2.59,1.21-4.26-.88-6.22-7.13-6.7-13.63-14.05-21-20.47-.61-.54-1.36-1.66-.86-1.93C292.14,121.22,293.16,122.24,294.08,123Z"/><path class="cls-11" d="M280.87,79.41c1.85,4.13,5.23,6.06,9.55,6.61-1.52,5.07-4.72,9.13-8,13.13.48-5.62-1.59-10.46-4.47-15.12-.94-1.52-3-3-1.32-5.28C278.21,77.86,279.56,78.5,280.87,79.41Z"/><path class="cls-4" d="M246.94,36.07a9.79,9.79,0,0,1-4-3.67c-.7-1,.49-2.09,1.26-3q3.51-4.07,6.91-8.24c.9-1.1,2-1.77,3-.52s4.2,2,2.69,4.29a126.49,126.49,0,0,1-8.56,10.57C247.92,35.83,247.35,35.9,246.94,36.07Z"/><path class="cls-5" d="M259.73,47.64l-2.2,2.93a14.77,14.77,0,0,0,0,6.4,27.07,27.07,0,0,0,3,7.25c-.23,3.27-2.85,3.54-5.21,4.15a3.1,3.1,0,0,1-2-1.23c-2.24-4.07-4.62-8.12-2.35-13C252.63,50.22,256,48.73,259.73,47.64Z"/><path class="cls-8" d="M235.79,22.91c-2.85.51-4-.83-3.64-3.62.5-3.53,1.06-7,1.66-10.55.37-2.19,1.63-3,3.83-2.26,1.89.63,3.92.59,2.77,3.87a38.59,38.59,0,0,0-1.66,10.16C238.61,22.73,237.7,23.19,235.79,22.91Z"/><path class="cls-4" d="M149.4,27.55a4,4,0,0,0-2.92-.72c-3.87,1.33-7.54-.33-11.28-.8a1.37,1.37,0,0,1-1.27-1.49c.06-.87.76-1.21,1.43-1.42a57.67,57.67,0,0,1,8.85-1.71c1-.09,2.06-.49,3,.25,3.71.19,7.13-2,11-1.3a2.41,2.41,0,0,1,0,.88c-.87,2.08-1.34,4.56-2.79,6.09S151.44,26.94,149.4,27.55Z"/><path class="cls-11" d="M207,90.48,206.84,92a34.23,34.23,0,0,1-13.9-1.63c-6.75-2.27-7.57-8.6-8.74-14.58,1.35,2,2.77,4,4,6.07,2.7,4.48,7,6,11.83,6.52,2.37.24,4.73.4,6.88,1.54A1.29,1.29,0,0,0,207,90.48Z"/><path class="cls-4" d="M131.88,7.95q0-1.1,0-2.2a3.6,3.6,0,0,1,4.06-2.17c2,.32,3.9-.54,6.14-.62-.82,2.6-3.3,4-3.72,6.47a14.19,14.19,0,0,1-1.72,3.22,60.45,60.45,0,0,1-4.86,6.74c-1.11,1.32-2.68,1.44-2.66-.61C129.17,15,129.1,11.08,131.88,7.95Z"/><path class="cls-4" d="M45.72,76.36A4,4,0,0,0,45,79.28c-.92,6.65-6.5,3.26-10.14,4.93.86-3.61,3.76-5.54,5-8.46a6,6,0,0,1,1-2.5,36.33,36.33,0,0,1,3.79-5.19c.61-.69,1.32-1.57,2.39-1a1.86,1.86,0,0,1,.7,2.23C47.23,71.66,47.36,74.26,45.72,76.36Z"/><path class="cls-12" d="M255.39,68c1.86-1.07,4.16-1.52,5.19-3.74l.7.08c2.18,3.61,5.42,4.86,9.48,4.29-1.06,2.73-3.17,3.42-5.85,3a6.47,6.47,0,0,1-4.39.59C258.08,71.65,255.6,71.19,255.39,68Z"/><path class="cls-3" d="M251,54.13c-.64,4.73,1.18,8.89,3.06,13-2.55,2-4.23.17-6-1.37C246.52,60.94,247.44,57.27,251,54.13Z"/><path class="cls-4" d="M246,37.35c-.95,1.8-1.44,3.89-3.71,3.67a4.28,4.28,0,0,1-4-3.86,3.27,3.27,0,0,1,3.21-3.28C243.9,33.88,244.63,36.06,246,37.35Z"/><path class="cls-7" d="M151.77,102.91c-1.35,1.7-2.35.24-3.3-.46-3.72-2.77-7.46-5.53-11-8.47a19.27,19.27,0,0,0-4.63-2.6l.79-1.5c4.85,1.34,7.93,5.32,11.87,8C147.68,99.41,149.68,101.23,151.77,102.91Z"/><path class="cls-8" d="M234.43,24.06c.55,1,4.17-.81,3.32,2.52-.33,1.29.31,4.36-2.7,3.46-1.69-.51-5,.14-4.2-3.42C231.17,25.16,231.24,22.84,234.43,24.06Z"/><path class="cls-7" d="M248.13,65.79c2,.5,3.73,2,6,1.37l1.28.8a11.67,11.67,0,0,0,5.12,4.21C252.9,72.53,250.06,71.07,248.13,65.79Z"/><path class="cls-3" d="M264.9,71.58a14.61,14.61,0,0,0,5.85-3,.59.59,0,0,1,.44,0c1.27-.18,2.45-.2,2.46,1.59-1.13,2-3.46,2.7-5,4.26C268,72.71,265.84,72.94,264.9,71.58Z"/><path class="cls-3" d="M147.21,21.65l-2.2.73c-1.11-1.23-2.46-2.33-2.19-4.27l2.8-.73Z"/><path class="cls-9" d="M314.37,150.61l3.34-1c.73,1.51.2,3,.4,4.49C316.45,153.37,315.48,151.91,314.37,150.61Z"/><path class="cls-3" d="M136.33,11.57a3.93,3.93,0,0,1,2-2.14l2.39,2.8-1.44,1.47A3.54,3.54,0,0,1,136.33,11.57Z"/><path class="cls-3" d="M41.27,74.19a2.36,2.36,0,0,1-1.45,1.56L37,74.1a4.48,4.48,0,0,1,2-2C40.34,72.17,40.84,73.14,41.27,74.19Z"/><path class="cls-3" d="M332.5,165.41c.27.86-.24,1-.89,1.07-1.5.06-1.27-1.4-1.8-2.17-.24-.35-.25-1.33.57-1.32C331.9,163,331.76,164.64,332.5,165.41Z"/><path class="cls-3" d="M335.11,210.09c.93,2.47-.23,3.63-.74,4.95-.4-.2-1.09-.35-1.14-.61C332.95,212.84,334.12,211.91,335.11,210.09Z"/><path class="cls-3" d="M329.91,221.9c-.07-2.24.56-3.54,1.88-4.48.14-.1.8.18.84.37C333.08,219.76,331.32,220.35,329.91,221.9Z"/><path class="cls-2" d="M178.56,79.77l2.82-.4c0,1.32,0,2.63,0,3.94C179.85,82.61,179.64,80.85,178.56,79.77Z"/><path class="cls-3" d="M336.9,209c-.8-.61-1.11-.73-1.12-.87-.05-1.25-.65-2.58.36-3.69.1-.11.82,0,.91.24C337.74,206.11,336.83,207.28,336.9,209Z"/><path class="cls-3" d="M336.86,180.49c-1.32-1.52-2.23-2.57-1.85-4.14,0-.17.69-.4.88-.29C337.52,177,337,178.49,336.86,180.49Z"/><path class="cls-3" d="M326.35,157.3c1.5.34,2.75.93,2.57,2.68,0,.23-.47.65-.63.61C326.65,160.2,326.66,158.67,326.35,157.3Z"/><path class="cls-3" d="M334.19,173.75c-.79-1.76-2-2.53-1.31-4a.91.91,0,0,1,.86-.2C335.13,170.41,335,171.62,334.19,173.75Z"/><path class="cls-3" d="M324.62,153.83c0,.63-.31,1.24-.8,1a3.23,3.23,0,0,1-1.13-1.63c-.07-.17.72-1,.9-.89A1.42,1.42,0,0,1,324.62,153.83Z"/><path class="cls-9" d="M124.29,306.22,61,307.94c3.34-4.1,7.62-6.08,10.64-9.39s6.52-3.44,10.42-2.36c13,2.64,26,5.43,39,8.26C122.22,304.69,124,304.37,124.29,306.22Z"/><path class="cls-9" d="M80.67,289.68c.15-3.43,2.12-6.28,3.08-9.47.76-2.54,2.52-.78,3.67,0q14.32,9.43,28.55,19c2.35,1.58,5,2.76,6.89,5-1.81,1.35-3.54.07-5.08-.43C106.15,299.9,94.6,295.81,83,291.85,82,291.5,80.52,291.41,80.67,289.68Z"/><path class="cls-10" d="M80.67,289.68c9.44,3.9,19.17,7,28.85,10.17,4.44,1.47,8.62,3.73,13.35,4.29,2.07.63,2.26.91,1.42,2.08-11.09-2.36-22.21-4.61-33.26-7.16-3-.7-6.51-.24-8.94-2.87C81.65,294,79.78,292.15,80.67,289.68Z"/><path class="cls-3" d="M50.23,248.41c-1.06-1.54-2-2.85-.71-4.52.41-.52.84-.37,1.11.1A3.69,3.69,0,0,1,50.23,248.41Z"/><path class="cls-3" d="M52.72,258.63c1.7.52,1.14,2.23,1.81,3.27.11.18-1,1.25-1.22.89a12.07,12.07,0,0,1-1.36-3.37C51.79,258.9,52.25,258.6,52.72,258.63Z"/><path class="cls-3" d="M56.71,270c-1.25-.51-1.39-1.77-1.84-2.77-.19-.43-.23-1.39.67-1.29,1.47.15,1.51,1.67,2.06,2.63C57.94,269.16,57.16,269.57,56.71,270Z"/><path class="cls-3" d="M62.84,277.94c1.44,1.53,3.17,2.12,2.77,4.08,0,.19-.7.49-.84.39C63.44,281.49,62.82,280.18,62.84,277.94Z"/><path class="cls-3" d="M71.1,287.08c-.68.33-.8.44-.87.42a4.35,4.35,0,0,1-2.92-3.06,1.2,1.2,0,0,1,.79-.43C69.93,284.19,69.9,286,71.1,287.08Z"/><path class="cls-3" d="M61.22,275.62c-1.68-.08-2.73-.77-2.72-2.43,0-.25.36-.74.52-.72C60.9,272.63,60.47,274.53,61.22,275.62Z"/><path class="cls-3" d="M51.15,251.4c.41,1.33,1.82,2.55.55,4a1.22,1.22,0,0,1-1,0A4.33,4.33,0,0,1,51.15,251.4Z"/><path class="cls-3" d="M48.81,237.55c.19-.57,0-1.6,1-1.32s.35,1.38.67,2c-.38.65.35,2.15-.84,2C48.23,240,49.29,238.42,48.81,237.55Z"/><path class="cls-3" d="M74.38,291.86A1.73,1.73,0,0,1,73,290.05c0-.47.07-1.07.74-.94a1.61,1.61,0,0,1,1.39,1.78C75.14,291.36,75.08,291.87,74.38,291.86Z"/><path class="cls-3" d="M52.5,221.54c1,.08,1.76.35,1.29,1-.68,1-.14,2.59-1.49,3-.68.21-1.46-.79-1.07-1.28C51.93,223.44,51.25,221.79,52.5,221.54Z"/><path class="cls-3" d="M50.31,233.07c-.72-1.42-1.19-2.81.21-3.93.21-.17.85-.2.91-.09C52.27,230.67,51,231.77,50.31,233.07Z"/><path class="cls-7" d="M75,213.52c-1.46,1.27-2.82.88-4.19-.2-4.52-3.55-9.08-7-13.56-10.65-3.44-2.76-3.6-7-.45-8.72a3.7,3.7,0,0,1,3.3,1c4.26,3.53,8.79,6.71,13,10.26C76,207.61,76.45,210,75,213.52Z"/><path class="cls-7" d="M48.86,193.21a2.73,2.73,0,0,1-3.58-.13c-5-3.9-10.1-7.58-15-11.53-2.42-1.95-2.41-5.39-.35-7.86,1.73-.91,3,.12,4.24,1.05,4.18,3.08,8.22,6.33,12.25,9.59C49.69,187,50.28,189.36,48.86,193.21Z"/><path class="cls-3" d="M75,213.52c.51-3.92-.75-6.77-4.23-9.07-4.86-3.2-9-7.42-14-10.5,1.45-1.25,2.81-.89,4.19.18,4.35,3.39,8.73,6.73,13.06,10.14a7.34,7.34,0,0,1,3.13,6.9C77,212.6,76.49,213.43,75,213.52Z"/><path class="cls-3" d="M48.86,193.21c.42-4.05-.9-7-4.53-9.36-4.08-2.65-7.72-6-11.49-9.11a3.89,3.89,0,0,0-2.93-1.06,3.57,3.57,0,0,1,4.62,0,114.31,114.31,0,0,1,14.59,11.64C51.92,188,51.68,190.75,48.86,193.21Z"/><path class="cls-4" d="M27.48,59.66a4,4,0,0,0,2.92.72c4-1.49,7.76.15,11.58.92a1.22,1.22,0,0,1,1,1.34c-.07.87-.75,1.21-1.44,1.41a81,81,0,0,1-8.17,1.55,11.27,11.27,0,0,1-3-.06A23.78,23.78,0,0,0,22,66.81c-1.14.32-2.64.63-3.44-.16s.48-1.85.77-2.81c0-.11.13-.21.15-.32C20,60.38,21.16,58.2,25,59.67A7.1,7.1,0,0,0,27.48,59.66Z"/><path class="cls-3" d="M30.31,65.55c.52-1,1.45-.72,2.29-.73,1.37.79,2.69,1.6,2.18,3.54l-2.08.73Z"/><path class="cls-13" d="M34.78,68.36,32.6,64.82l9.93-1.92.08-.72-12.2-1.8c-4.94-13.24-1.54-24.81,7.22-35.19,9.69-11.48,23.08-16,37-19.31A144.33,144.33,0,0,1,100,2.26a72.35,72.35,0,0,1,31.91,5.68,54.91,54.91,0,0,0-2.17,12.85l6.62-9.22c1,.66,2.41.82,3,2.12-2.28,3.3-6,5.35-8.13,9.5,4.41-1.32,8-3.31,11.65-5.08.79,1.39,2.23,2.45,2.19,4.27l-10.7,1.75,0,.79,12.2,1.89C151,39.73,146,56.37,135,64.56S111.27,76.21,98.28,79c-3.34.71-3.79,1.81-3.24,4.57.29,1.49,1.29,2.89.51,4.8-1.62-1-3.27-2-4.85-3a22,22,0,0,0-14-4.05,75.38,75.38,0,0,1-27.39-3.45c-1.22-.39-2.38-1-3.57-1.47l1.43-9.64c-2.68,2.53-4.14,5.12-5.88,7.47A5.33,5.33,0,0,1,39,72.06c1-3.4,4.61-4.7,6.71-8.47Z"/><path class="cls-14" d="M143.68,108.87c-4.38,5.67-6.76,12.35-9.22,18.92-3.85,10.3-7.23,20.78-10.81,31.19-.49,3.12-3.86,4.79-4.07,8.05-1,1.52-2.91,1.63-4.22,2.68-2.31,1.84-2.52,3.25-.76,5.51.76-4.94,1-5.18,4.19-5.1-.15,4.35.22,8.58,2.67,12.37A9.28,9.28,0,0,0,128,186c6.56.84,13,.79,18.6-3.61,1.14-.89,2.26-2.31,4.1-1.62,1.25,2.13.43,4.22-.13,6.31-1.13,3.38-1.32,7-2.92,10.27-4.06,4.26-9.66,6.14-14.44,9.3-2.19,1.45-4.61,2.59-6.84,4-3,1.86-3,3.64-.35,5.93,3.1,2.67,6.5,4.95,9.63,7.57,1.11.93,2.29,1.78,2.47,3.39-1.1,4.37-1.7,8.92-4.25,12.81-4.49-2.44-8.17-6-12.19-9-12.23-9.35-24.34-18.86-36.48-28.32-1-.81-2-1.77-2.93-2.65-.89-1.1-.56-2.28-.2-3.45,8.48-27.12,16.55-54.37,25.3-81.41a4.88,4.88,0,0,1,1.35-1.87c5.41-3.11,10.68-6.47,16.21-9.37,6.11-3.21,11.8-2.48,17,2.08C142.7,107,143.59,107.66,143.68,108.87Z"/><path class="cls-15" d="M108.17,115.35q-5.95,19.33-11.9,38.66-6.93,22.44-13.88,44.87a7,7,0,0,0-.14,1.44c-12-9.32-24-18.59-35.84-28-5.1-4-10.79-7.35-15.05-12.4a7.11,7.11,0,0,1,2.84-3.17c8.22-4.58,16.25-9.48,24.43-14.12,2.15-1.22,4.34-2,6.89-1.43a5.57,5.57,0,0,0,4.11-1c8.7-4.95,17.26-10.14,26-15,2.34-1.29,2.7-3.54,3.92-5.39l0,.07C101.86,117.33,104.3,115,108.17,115.35Z"/><path class="cls-14" d="M261,277.82c-12.39,7.27-24.74,14.58-37.17,21.78-7.64,4.42-10.54,4-17.3-2.07-.61-2.5.53-4.73,1.25-7,1.6-4.9,3-9.85,4.49-14.78a5.2,5.2,0,0,1,2.76-2.7c17.73-10.2,35.4-20.51,53.12-30.74,1.35-.78,2.76-2.19,4.57-.81.21,3-1.14,5.67-2,8.4-2.39,7.86-4.93,15.68-7.25,23.57A7.92,7.92,0,0,1,261,277.82Z"/><path class="cls-15" d="M261,277.82l11.5-36.43c-.35-1.62,1-2,2-2.65,2-1.37,4.2-2.4,6.27-3.66,4.84-2.94,4.88-4,.5-7.48-1.56-1.23-3.71-2-4-4.4.71-2.56.95-5.31,3-7.33,1.69-.43,2.69.84,3.78,1.67,10.37,8,20.65,16.07,30.93,24.17,1,.82,2.13,1.62,2,3.18-3.65,3.62-8.42,5.51-12.74,8.07-14.09,8.35-28.29,16.51-42.46,24.73A2.16,2.16,0,0,1,261,277.82Z"/><path class="cls-15" d="M213.08,275.63c-1.54,7.49-4.27,14.62-6.53,21.89L176,273.59a192.54,192.54,0,0,1,6.69-22.4c3.24-3.77,8-5.3,12-7.9,4.45-2.88,9.29-5.14,13.69-8.12a13.25,13.25,0,0,1,4.07-1.55,58,58,0,0,0,11.52-3.74c1.17-.5,2.3-1.34,3.71-.79,1.15,2.2-.18,4-1,5.86-3.36,3.63-8,5.37-12.1,7.81-8.73,5.17-17.58,10.14-26.27,15.4-4.17,2.52-4.2,3.72-.37,6.86s7.92,6,11.65,9.22c3.42,3,7,4.25,11.17,1.49A1.75,1.75,0,0,1,213.08,275.63Z"/><path class="cls-6" d="M149.76,187.16c.06-2.15,1.16-4.21.62-6.42-.51-3.63.7-7.12.91-10.7s1.12-6.93-1-10.11c-2.09-2.69-5.6-3.57-7.78-6.12a3.39,3.39,0,0,0-.64-.84c-1.53-1.05-3.89-1.88-2.87-4.21.89-2,3.3-1.63,5.12-1.42,4.65.55,8.43,3.48,12.78,4.92a6.13,6.13,0,0,1,4.26,2.51c3.17,4.76,8.48,7.73,10.56,13.54,1,2.9,3.75,5.21,5.79,7.73,1.61,2,3.3,3.89,2.67,6.74-1.78,1.34-2.9-.06-4-1.08-2.18-2-3.82-4.57-5.79-6.68a24.06,24.06,0,0,0,3.44,5.1c.76,1,1.88,1.93,1.38,3.46.47,2.09,1,4.17,1.4,6.27a3,3,0,0,1-1.82,3.58c-1.92.74-2-1.17-2.61-2.21a115.3,115.3,0,0,0-7.91-12.73c0,3.71,0,7.43,0,11.14a6.6,6.6,0,0,1-1,3.78,3.06,3.06,0,0,1-3.17,1.25c-1.13-.18-.92-1.51-.95-2.46-.13-4.2-1.17-8.34-.76-12.58a3.53,3.53,0,0,0-1-2.8c-.8,2.63-1.54,5.17-2.35,7.69-.69,2.13-2,3.54-4.46,3.45C150.06,187.93,150,187.46,149.76,187.16Z"/><path class="cls-14" d="M183.27,251c-2.21,7.59-3.84,15.36-7.3,22.55l-22.46-17.54a3.6,3.6,0,0,1-.32-3.71c1.2-3.47,2.09-7,3.51-10.43,1.29-1.06,1.94.27,2.7.83,3.09,2.27,6.14,4.61,9,7.1,3.73,3.19,7.6,4.46,12.11,1.62A2.63,2.63,0,0,1,183.27,251Z"/><path class="cls-15" d="M157.1,241.67c.1,3.32-1.65,6.15-2.45,9.23-.44,1.71-1.34,3.31-1.14,5.17-6.59-5.19-13.56-9.92-19.67-15.72l3.62-13.17a1.31,1.31,0,0,1,1.36-.07c4.28,3.17,8.46,2.09,12.63-.23a2.91,2.91,0,0,1,1-.24c3.08.53,5.66,2.15,8.22,3.81a1.52,1.52,0,0,1,.26,1c-.76,1.65-2.52,2.06-3.85,3-3.22,2.26-3.37,3.22-.74,6.06A2.56,2.56,0,0,1,157.1,241.67Z"/><path class="cls-16" d="M316.94,244.88c-4.9-5.16-11-8.91-16.38-13.45-6.48-5.43-13.35-10.38-20.05-15.55-1.51.18-2.41-.88-3.45-1.68-12.12-9.27-24-18.9-36.12-28.11-2.45-2.48-5.84-3.94-7.69-7.07l0-4.29c4.58,2.37,8.22,6,12.27,9.09,9.8,7.43,19.42,15.12,29.1,22.72l32.7,25.68c2.54,2,5,4.1,7.64,5.95S318.25,242.09,316.94,244.88Z"/><path class="cls-7" d="M142.47,153.81a18.81,18.81,0,0,1,7.86,5.06c-.72,1.34-2.11,1.47-3.36,1.83-2.43.7-4.89,1.26-7.32,1.94-9.56,2.68-15.21,9.17-18,18.43a2.88,2.88,0,0,1-1,1.84c-2.24-4.1-3.83-8.3-2.15-13a4.21,4.21,0,0,1,.66-3c-.47-3.77,2.74-5.43,4.54-7.9A36,36,0,0,1,142.47,153.81Z"/><path class="cls-16" d="M99.56,119.81c1,5.4-3.72,6.11-6.78,8-7.67,4.68-15.47,9.14-23.24,13.65-.79.46-1.91,1.12-2.59.88-6.05-2.13-9.87,2.58-14.34,4.8-6.15,3-11.86,7-17.88,10.32-1.28.71-2,2-3.38,2.49a5.62,5.62,0,0,1,3-6.3q13.27-7.51,26.48-15.11c1.5-.86,2.91-1.55,4.69-.55,1.21.69,2.46.32,3.69-.4Q84.38,128.64,99.56,119.81Z"/><path class="cls-17" d="M143.68,108.87c-2.72-1.76-4.83-4.28-8.24-5.24-3.65-1-6.75-.21-9.85,1.26-5.72,2.72-10.72,6.77-16.61,9.18-1.42-1.5,0-2.52.63-3.66a108.36,108.36,0,0,1,17.45-10.11c4.76-2.18,9.86-1.86,14.14,2a22,22,0,0,0,2.6,1.94C146.28,105.85,146.68,107.39,143.68,108.87Z"/><path class="cls-2" d="M69.68,134.4c-.92-.07-1.72,0-2-.92a1.56,1.56,0,0,1,.58-1.91c4.92-3,9.74-6.18,15-8.63a1.55,1.55,0,0,1,2.13.84c.7,1.45-.31,2.35-1.32,3-3.19,1.91-6.48,3.68-9.7,5.54C72.83,133.19,71.35,134.23,69.68,134.4Z"/><path class="cls-16" d="M109.61,110.41c0,1.26-1,2.34-.63,3.66l-.82,1.28c-3.26.8-5.65,3.25-8.65,4.53-1.21-2.56-.56-4.12,2.18-5.24A82.13,82.13,0,0,0,109.61,110.41Z"/><path class="cls-2" d="M90.47,122c-1.34,0-2.57-.35-2.44-2s1.44-1.7,2.7-1.65c1.44.05,2.26.78,2.16,2.26C92.78,122.32,91.44,121.89,90.47,122Z"/><path class="cls-18" d="M209.11,100.73c5.37,4.63,6.42,11.24,7.94,17.6a62.43,62.43,0,0,1,.89,7.1c.65,6.88,1.24,13.77,2,20.64.33,3.09.35,6.19.75,9.29.75,5.81.6,11.74.93,17.61.45,8,1,16,1.54,24a6.11,6.11,0,0,0,.63,1.66,5.3,5.3,0,0,1-2.55,2.45c-9.93,4.9-20.48,5.88-31.33,5a2.87,2.87,0,0,1-1.57-.83c-.19-10.45.51-20.89.8-31.33.28-10.28.38-20.6,1.3-30.84a124.26,124.26,0,0,0,.5-14.71c-.1-7.57,1.08-15.25-2.11-22.53,5.15,1.78,9.87,4.63,15.4,5.54,5.77,1,6.85.1,5.71-5.75C209.58,104,209.37,102.37,209.11,100.73Z"/><path class="cls-3" d="M188.3,205.27c9.87.14,19.77.49,29.09-3.66,2.14-1,4.25-2,6.37-2.95l.82,10.85c.87,1.15.07,2-.52,2.9a25.78,25.78,0,0,1-3.66,4.43c-2.89,2.7-5.68,5.48-6.83,9.44a8.66,8.66,0,0,1-3.93,1.73,75.08,75.08,0,0,1-38.9-.72c-2.62-1-5.32-1.89-7.92-3-.89-.33-1.75-.71-2.61-1.1a29,29,0,0,1-7.84-4.94,8.69,8.69,0,0,1-1.76-10.7c9.28,7,19.84,10.87,31.17,12.88,4.8.85,6,.06,5.71-4.81C187.31,212.12,188.43,208.76,188.3,205.27Z"/><path class="cls-13" d="M152.75,227.14c-2.19.9-4.13,2.35-6.49,2.92-3.56.86-6.06-1.32-8.79-2.89-3.42-3.94-8-6.46-11.93-9.81-3.61-3.09-3.48-5.37.81-7.85,6.86-4,13.67-8.06,20.5-12.1.84-.66,1.38-1.88,2.79-1.41l0,1.35c-1.17,2.8-3.42,4.94-4.65,7.7-2.64,5.93-1.38,11.25,2.63,16.08,1.54,1.85,3.46,3.33,5.15,5A1,1,0,0,1,152.75,227.14Z"/><path class="cls-19" d="M152.68,226.43c-11-6.45-14.21-18.83-3-29.09,1,3.36-1.58,7,.95,10.25-1.4,7,1.95,11.26,8.15,13.83a12.42,12.42,0,0,1,2,1.33C158.36,224.61,156.31,227.26,152.68,226.43Z"/><path class="cls-11" d="M175.17,183.59c-2.12-3.64-5.77-6.38-6.51-10.94,1.4.75,3.91,3.45,5.77,5.79,1.51,1.91,2.7,4.36,5.71,4.35C179,186.49,177,184.13,175.17,183.59Z"/><path class="cls-15" d="M149.64,196c-.95.43-1.57,1.52-2.79,1.41l2.91-10.24.8.82Z"/><path class="cls-11" d="M206.3,56.47a3.23,3.23,0,0,1,2.37,1.47c2.06,2.48,4.05,5,6.1,7.5.68.83.63,1.36-.28,2-1.85,1.37-4,3.16-6,3-1.64-.16-1.39-3.13-1.88-4.89-.64-2.3-1.28-4.6-1.85-6.92C204.48,57.41,204.75,56.45,206.3,56.47Z"/><path class="cls-20" d="M201.07,75.26c1.26-1.13,8.65-.93,8.9.39.39,2.09-.83,3.58-3.07,4C205.56,77.35,203.25,76.39,201.07,75.26Z"/><path class="cls-2" d="M198.26,63.73c-1.36-.64-2.44-1.45-2.33-3.2s1.42-1.92,2.83-1.93c1.85,0,2.18,1.41,2.15,2.63C200.87,62.65,199.77,63.49,198.26,63.73Z"/><path class="cls-2" d="M217.5,58.93c-.63,1.28-1,2.77-2.94,2.57s-2-1.37-2-2.79c0-1.68.81-2.33,2.44-2.31S216.86,58,217.5,58.93Z"/><path class="cls-11" d="M201.07,75.26c3.13-.14,5.55.69,5.83,4.36C203.69,79.87,201.23,79.1,201.07,75.26Z"/><path class="cls-2" d="M193.85,58.21a15.41,15.41,0,0,1,0-3.45c.36-1.29,1.56-1.21,2.67-1.24a2,2,0,0,1,2.09,1.06c.49,1.38-1.13,1.23-1.71,1.83A14.27,14.27,0,0,1,193.85,58.21Z"/><path class="cls-2" d="M215.39,54.29c-.94-.55-2.77,0-2.93-1.65a2,2,0,0,1,2.34-2.05,2.7,2.7,0,0,1,2.82,2.58C217.73,54.78,216.29,54,215.39,54.29Z"/><path class="cls-3" d="M280.87,79.41c-1.52.48-2.83-.44-4.24-.67.77-.73.35-2.94,2.14-2.22C279.74,76.91,282.26,77,280.87,79.41Z"/><path class="cls-7" d="M273.66,70.13a4.87,4.87,0,0,0-2.46-1.59c1.69-1.58,4-1.38,6-2.07A11.83,11.83,0,0,1,273.66,70.13Z"/><path class="cls-7" d="M281.23,74c-1.69-1-1.35-2.42-1.86-4.15C280.85,71.16,281.73,72.12,281.23,74Z"/><path class="cls-19" d="M170.23,226.34c7.91,1.81,15.91,3.32,24,2.81,6.6-.41,13.3-.78,19.46-3.71.71-1.27,2-1.65,3.22-2.19a69.07,69.07,0,0,0,11.78-7c3.25-2.33,5-5.18,4.2-9.24a5.24,5.24,0,0,1,.25-3.19c1-2.13.76-4.41.9-6.64,5.69,1.88,6.88,6.93,8,11.82a12.65,12.65,0,0,1-1.52,9.09,4.75,4.75,0,0,1-1.11,1.24c-3.33,2.17-7,3.77-10.29,6-5.56,3.1-10.79,6.82-16.85,9-1,1.15-2.65.52-3.68,1.5a47.44,47.44,0,0,1-20.8,2c-1.16-.24-2.36-.21-3.5-.57a14.61,14.61,0,0,1-4.41-2.4c-3.73-2.91-7.62-3.25-11.7-.77a3.41,3.41,0,0,1-1.64.15c-1.87-.69-4.1-.68-5.27-2.71C163.17,227.86,166.24,226.3,170.23,226.34Z"/><path class="cls-13" d="M239.8,218.25c3.19-8.42,1.17-15.42-5.73-21.09-.38-2.14.4-4.4-.72-6.46,2.86-1.6,4.25,1.13,6.23,2.12,4.58,3.33,8.88,7,13.4,10.43,3.81,2.88,3.81,5.83-.24,8.23S244.82,217.36,239.8,218.25Z"/><path class="cls-7" d="M233.17,203.8c1,4,2.1,8.14-1.51,11.25a53,53,0,0,1-16.29,9.79l-1.65.6c-.36-2.2.53-3.78,2.09-5.35,3.23-3.25,7-6.07,8.76-10.58A15,15,0,0,0,233.17,203.8Z"/><path class="cls-15" d="M239,193.54c-1.83-1.08-3.17-3.14-5.69-2.84q-.05-5.83-.1-11.66a45.56,45.56,0,0,1,8,6.45A8.2,8.2,0,0,1,239,193.54Z"/><path class="cls-8" d="M282.36,39.63a26.25,26.25,0,0,1-.58-13.6c1.67-8,8.7-9.34,15.79-4,10.66,8.09,15.8,19.32,16,32.74a12.77,12.77,0,0,1-1.72,6.92c-2.67,4.34-7.81,5.23-12.67,2.11-3.43-2.2-6.87-4.47-8.89-8.23,1.47-3.89,5.42-5,8.25-7.33,1.65-3.5,1.2-6.88-1.26-9.48-1.55-1.63-3.29-2.28-5.42-1.16C288.78,38.86,286,41.18,282.36,39.63Z"/><path class="cls-7" d="M298.93,49a53.21,53.21,0,0,0-8.68,6.56c-4-4.63-6.36-10.11-7.9-16a21.35,21.35,0,0,0,9.33-3c1.13,1.4.09,3,.38,4.47C292.85,45.1,295.51,47.38,298.93,49Z"/><path class="cls-21" d="M257.54,57a7.19,7.19,0,0,1,0-6.4Q257.53,53.77,257.54,57Z"/><path class="cls-4" d="M39.68,40c2.68,3.36,2.68,3.36.49,6.31C37.74,43.74,37.74,43.74,39.68,40Z"/><path class="cls-4" d="M112.3,10.95c-.31,1.69,4.9,1.71,1.17,4.47-1.07.79-1,1-2.22.08C107.74,12.86,112.27,12.56,112.3,10.95Z"/><path class="cls-4" d="M138.17,41.14c-1.86,2.2-3.76,2.76-5.72.12C134.27,38.1,136.2,38.65,138.17,41.14Z"/><path class="cls-4" d="M41.7,52c2.83,1.46,1.95,3,0,4.45C39.91,55,39.86,53.5,41.7,52Z"/><path class="cls-4" d="M107.16,16.62a2.07,2.07,0,0,1-1.52,1.8c-.78.16-.9-.93-1.1-1.47-.29-.8.39-1.4,1.1-1.54S106.9,15.88,107.16,16.62Z"/><path class="cls-4" d="M139.32,45.06c.75.25,1.39.69,1.23,1.51A1.25,1.25,0,0,1,139,47.68a1.8,1.8,0,0,1-1-1.27C137.92,45.64,138.54,45.17,139.32,45.06Z"/><path class="cls-4" d="M33.55,50.91c-.74-.06-1-.5-.92-1.19a.86.86,0,0,1,.92-.84,1,1,0,1,1,0,2Z"/><path class="cls-11" d="M120.6,182.91c.37-8.45,7.5-17.38,16.48-20.33,4.35-1.43,8.83-2.49,13.24-3.72,3.51,1.73,2.27,5,2.18,7.64-.16,4.8-.43,9.64-2.12,14.24-7.53,6.67-16.06,8.29-25.64,5.33A7.53,7.53,0,0,1,120.6,182.91Z"/><path class="cls-22" d="M105.8,178.84c-.57,1.56-1.12,3-1.61,4.38a1.64,1.64,0,0,1-2.3,1.08c-1.17-.33-.72-1.34-.73-2.12,0-.22.2-.44.26-.67,2.11-7.63,2.27-7.72,8.63-3.1,3.66,2.66,7.2,5.49,10.84,8.18,1,.74,1.66,1.53.93,2.7-.89,1.43-1.72.53-2.63-.17C114.78,185.69,110.32,182.31,105.8,178.84Z"/><path class="cls-22" d="M106.31,143.62a20,20,0,0,1,7.83,3.58,2,2,0,0,1,0,3.16c-1.69,1.15-3.43,2.87-5.84,1.73a11.46,11.46,0,0,1-4.86-5.26C102.18,144.4,104.71,144.12,106.31,143.62Z"/><path class="cls-22" d="M119.12,166.88c-.05,1,.53,2.21-.66,3-2.09,1.15-3.83,2.4-2.24,5.2a1.36,1.36,0,0,1-.47,1.89,1.67,1.67,0,0,1-1.93-.52c-2-1.95-2.26-3.9-.45-6.21C114.89,168.29,117.21,168,119.12,166.88Z"/><path class="cls-22" d="M130,115.88c-1.26,2-3.49,3-5.62,3.62-1,.31-3.33-1.16-2.89-2.26.91-2.28,3.56-2.73,5.81-3.25A2,2,0,0,1,130,115.88Z"/><path class="cls-22" d="M115,122.18c.64-1.95,2.73-2.34,4-4.19C122.14,124.54,115.49,120,115,122.18Z"/><path class="cls-3" d="M44.33,164.81c.89-1.36,1.61-2.36,2.23-3.41,2.74-4.65,2.73-4.66,6.64-.06C50.08,162,48.15,165.25,44.33,164.81Z"/><path class="cls-3" d="M67.73,151.57c-1.21-.47-2.89,1-3-1.16-.1-2.43,2-2.57,3.66-2.9.94-.18,2,.19,1.62,1.43S70,152.38,67.73,151.57Z"/><path class="cls-3" d="M57.88,157.58c-1.44.16-1.88-.31-1.86-1.4a2.81,2.81,0,0,1,2.59-2.72c.93-.11,3.22.12,3,1.49C61.27,156.65,58.74,156.46,57.88,157.58Z"/><path class="cls-13" d="M213.08,275.63c-3.63,1.65-7.15,4.39-11.31,1.38-2.33-1.69-4.56-3.52-6.83-5.3-2.93-2.3-5.82-4.64-8.78-6.9-3.13-2.38-3.05-4.69.35-6.68q18.39-10.73,36.8-21.44c.93-.54,1.82-1.16,2.74-1.74,1.28-1.88,3.27-2.83,5.15-3.9q13-7.46,26-15.11c5.44-3.22,7.71-3.18,12.82.73,2.65,2,5.72,3.62,7.57,6.58,1.43,2.17,3.79,3.22,5.76,4.73,3.08,2.36,2.9,4.57-.28,6.74-3.44,2.34-7.56,3.6-10.52,6.67-6.4,2.52-12,6.51-18,9.86-13.58,7.67-27.07,15.51-40.58,23.3C213.61,274.77,213.38,275.27,213.08,275.63Z"/><path class="cls-14" d="M277.58,223.25c-3-2.16-6-4.28-9-6.49-3.69-2.75-6-3-9.86-.73q-14.73,8.64-29.44,17.31c-1,.61-2.14,1.08-3.22,1.62l1.46-5.72a2,2,0,0,1,.64-1.37c4.12-2.35,7.28-5.89,10.88-8.87l.76-.75c3.91-2.33,7.8-4.68,11.73-7,4.49-2.62,4.6-4.6.54-7.63-4.4-3.29-8.69-6.73-13-10.1l2.19-8.05c5.82,3.6,10.84,8.25,16.26,12.37,7.76,5.9,15.35,12,23,18C279.25,218.23,279.18,221,277.58,223.25Z"/><path class="cls-13" d="M161.45,231.39l5.13,2.21c-.42,4.65,3.79,6.83,5.59,10.3.72,1.39,11.23.29,11.23-1.08,0-3.2,2.56-4.36,4.23-6.26,2.66,1.19,5.43.68,8.16.47,4.27-.34,8.53-.82,12.79-1.24-3.88,3.41-8.71,5.26-13,7.95-4,2.52-8.18,4.88-12.28,7.31-2.29.66-3.91,2.67-6.44,2.94-4,.43-6.8-1.53-9.56-4-3.27-2.92-7.16-5.1-10.17-8.34-5-2.73-5.11-4.87-.42-7.94,1.31-.85,2.73-1.54,4.09-2.3C161,231.13,161.21,231.1,161.45,231.39Z"/><path class="cls-23" d="M228.25,228.48l-.74.75c-4.92,2.19-9.72,4.72-15.25,5.06a163.49,163.49,0,0,1,16.68-9.5C230.27,226.31,228.83,227.32,228.25,228.48Z"/><path class="cls-11" d="M155.4,162c3.11.49,5.77.89,8.28-.94C162.73,164.59,159,165.09,155.4,162Z"/><path class="cls-23" d="M152.68,226.43c3.12-.3,5-3.25,8.09-3.68l2.12.86c1.19,3-.11,5.2-2.19,7.18-2.87-.74-5.28-2.47-7.95-3.65Q152.72,226.78,152.68,226.43Z"/><path class="cls-24" d="M160.7,230.79c.89-2.35,1.95-4.64,2.19-7.18a33.53,33.53,0,0,1,7.34,2.73,23.48,23.48,0,0,0-8.78,5.05l-.33.05-.34,0A5.18,5.18,0,0,1,160.7,230.79Z"/><path class="cls-25" d="M187.63,236.56a2.85,2.85,0,0,1-1.94,3.09,1.67,1.67,0,0,0-1.19,1.84c0,3.16-1.86,4.72-4.69,3.55-1.88-.78-3-.2-4.5.45-2.06.88-4.09,1.08-4.47-2a4.15,4.15,0,0,0-2.13-2.78c-2.63-1.82-3.56-4.06-2.15-7.06H168c5.49-.11,10.68,1.44,15.89,2.87Z"/><path class="cls-26" d="M183.91,236.47A55,55,0,0,1,168,233.59c2.92-2.77,7.16-3,11-.6C180.71,234.07,182.29,235.3,183.91,236.47Z"/><path class="cls-24" d="M228.25,228.48l.69-3.69c2.94-2.67,6.52-4.23,10.09-5.8A25.66,25.66,0,0,1,228.25,228.48Z"/><path class="cls-5" d="M298.93,49c-6-.59-9-5.73-7.24-12.4,3.94-1.36,8.09,1.45,8.61,6.24C300.52,44.92,301.51,47.48,298.93,49Z"/><path class="cls-14" d="M104.84,146.46c.82-1.52,1.86-1.34,3-1C107.38,147.07,106.2,146.63,104.84,146.46Z"/><path class="cls-27" d="M204.13,256.1c2.47,0,4.78.38,6.58,2.32a6.1,6.1,0,0,0,4.85,2c2.55-.06,2.74,1.36,1.31,2.88a6.15,6.15,0,0,0-1.79,4.23c-.22,2.87-2.8,2.67-4.73,1.92a4.26,4.26,0,0,0-4.31.41c-2.15,1.32-4.18,1.41-4.66-1.93-.2-1.43-1.54-2.1-2.41-3.08-1.26-1.42-3-2.67-2.31-4.92.79-2.54,3.1-3.18,5.31-3.8A8.36,8.36,0,0,1,204.13,256.1Z"/><text class="cls-28" transform="translate(56.77 41.91)">HOA<tspan class="cls-29" x="37.1" y="0">K</tspan><tspan x="49.12" y="0">S</tspan></text><text class="cls-30" transform="translate(56.77 69.81)">NEWS</text><circle class="cls-31" cx="333.19" cy="98.2" r="10.81"/><line class="cls-32" x1="325.8" y1="105.91" x2="340.57" y2="91.14"/><circle class="cls-33" cx="9.78" cy="114.36" r="8.27" transform="translate(-44.28 13.11) rotate(-23.21)"/><line class="cls-34" x1="6.67" y1="121.72" x2="12.6" y2="106.88"/><circle class="cls-35" cx="24.69" cy="257.55" r="14.91"/><line class="cls-35" x1="14.5" y1="268.19" x2="34.88" y2="247.82"/><circle class="cls-31" cx="302.66" cy="187.85" r="7.46" transform="translate(79.53 465.53) rotate(-83.04)"/><line class="cls-32" x1="307.32" y1="193.55" x2="298.44" y2="182.2"/></g></g></svg>